<svg width="53" height="52" viewBox="0 0 53 52" fill="none" xmlns="http://www.w3.org/2000/svg">
<rect x="0.166504" width="52" height="52" rx="24" fill="#EEE9FE"/>
<path d="M32.8333 14.6666H19.4999C15.4999 14.6666 12.8333 16.6666 12.8333 21.3333V30.6666C12.8333 35.3333 15.4999 37.3333 19.4999 37.3333H32.8333C36.8333 37.3333 39.4999 35.3333 39.4999 30.6666V21.3333C39.4999 16.6666 36.8333 14.6666 32.8333 14.6666ZM15.1666 21.3333C15.1666 18.9466 17.1133 17 19.4999 17H21.4999C22.0466 17 22.4999 17.4533 22.4999 18C22.4999 18.5466 22.0466 19 21.4999 19H19.4999C18.2199 19 17.1666 20.0533 17.1666 21.3333V23.3333C17.1666 23.88 16.7133 24.3333 16.1666 24.3333C15.6199 24.3333 15.1666 23.88 15.1666 23.3333V21.3333ZM21.4999 35H19.4999C17.1133 35 15.1666 33.0533 15.1666 30.6666V28.6666C15.1666 28.12 15.6199 27.6666 16.1666 27.6666C16.7133 27.6666 17.1666 28.12 17.1666 28.6666V30.6666C17.1666 31.9466 18.2199 33 19.4999 33H21.4999C22.0466 33 22.4999 33.4533 22.4999 34C22.4999 34.5466 22.0466 35 21.4999 35ZM26.1666 30C23.9533 30 22.1666 28.2133 22.1666 26C22.1666 23.7866 23.9533 22 26.1666 22C28.3799 22 30.1666 23.7866 30.1666 26C30.1666 28.2133 28.3799 30 26.1666 30ZM37.1666 30.6666C37.1666 33.0533 35.2199 35 32.8333 35H30.8333C30.2866 35 29.8333 34.5466 29.8333 34C29.8333 33.4533 30.2866 33 30.8333 33H32.8333C34.1133 33 35.1666 31.9466 35.1666 30.6666V28.6666C35.1666 28.12 35.6199 27.6666 36.1666 27.6666C36.7133 27.6666 37.1666 28.12 37.1666 28.6666V30.6666ZM37.1666 23.3333C37.1666 23.88 36.7133 24.3333 36.1666 24.3333C35.6199 24.3333 35.1666 23.88 35.1666 23.3333V21.3333C35.1666 20.0533 34.1133 19 32.8333 19H30.8333C30.2866 19 29.8333 18.5466 29.8333 18C29.8333 17.4533 30.2866 17 30.8333 17H32.8333C35.2199 17 37.1666 18.9466 37.1666 21.3333V23.3333Z" fill="#7959F5"/>
</svg>
