<svg xmlns="http://www.w3.org/2000/svg" width="375" height="260" fill="none" viewBox="0 0 375 260"><g filter="url(#filter0_d_5_2061)"><g clip-path="url(#clip0_5_2061)"><rect width="335" height="200" x="20" y="26" fill="#141D3E" rx="24"/><g opacity=".1"><g opacity=".3"><path stroke="#FCFDFD" stroke-width=".725" d="M158.738 96.3128C163.871 105.203 165.663 115.633 163.792 125.726C161.922 135.82 156.511 144.914 148.533 151.374C140.555 157.835 130.534 161.236 120.273 160.968C110.011 160.699 100.182 156.777 92.5529 149.909"/><path stroke="#FCFDFD" stroke-width=".725" d="M141.795 106.095C144.599 110.951 145.578 116.648 144.556 122.161C143.534 127.674 140.579 132.642 136.221 136.171C131.864 139.699 126.39 141.557 120.785 141.41C115.18 141.264 109.811 139.122 105.644 135.37"/><path stroke="#FCFDFD" stroke-width=".725" d="M83.284 131.727C83.0651 130.166 84.308 128.786 85.8833 128.84L105.479 129.519C107.632 129.594 108.718 132.149 107.276 133.751L90.4037 152.489C88.962 154.09 86.3068 153.278 86.0075 151.144L83.284 131.727Z"/></g><g opacity=".3"><path stroke="#FCFDFD" stroke-width=".725" d="M221.523 183.775C216.391 174.885 214.599 164.456 216.469 154.362C218.34 144.269 223.751 135.174 231.728 128.714C239.706 122.253 249.727 118.852 259.989 119.121C270.251 119.389 280.08 123.311 287.709 130.18"/><path stroke="#FCFDFD" stroke-width=".725" d="M238.466 173.993C235.663 169.137 234.684 163.44 235.705 157.927C236.727 152.414 239.683 147.446 244.04 143.918C248.398 140.389 253.872 138.531 259.477 138.678C265.082 138.824 270.451 140.966 274.618 144.718"/><path stroke="#FCFDFD" stroke-width=".725" d="M296.977 148.361C297.196 149.921 295.953 151.302 294.378 151.247L274.782 150.568C272.629 150.494 271.544 147.938 272.986 146.337L289.858 127.598C291.299 125.997 293.955 126.809 294.254 128.943L296.977 148.361Z"/></g><g opacity=".8"><path stroke="#FFCC04" d="M360.132 135.032C350.114 125.014 336.851 118.9 322.727 117.788C308.604 116.677 294.547 120.641 283.086 128.968C271.624 137.296 263.51 149.439 260.203 163.215C256.896 176.991 258.612 191.494 265.044 204.117"/><path stroke="#FFCC04" d="M341.04 154.124C335.568 148.652 328.323 145.312 320.609 144.705C312.895 144.098 305.217 146.263 298.956 150.812C292.696 155.36 288.264 161.993 286.457 169.518C284.651 177.043 285.588 184.965 289.101 191.86"/><path fill="#FFCC04" d="M285.774 223.427C288.063 224.398 290.673 223.068 291.233 220.645L297.328 194.28C298.093 190.969 294.643 188.273 291.615 189.816L260.608 205.614C257.58 207.157 257.734 211.534 260.862 212.861L285.774 223.427Z"/></g><g opacity=".8"><path stroke="#FCFDFD" d="M109.132 8.03164C119.15 18.0493 125.264 31.3127 126.376 45.4362C127.487 59.5596 123.523 73.6163 115.196 85.0777C106.868 96.5392 94.7248 104.653 80.9491 107.961C67.1734 111.268 52.6697 109.551 40.0467 103.119"/><path stroke="#FCFDFD" d="M90.0402 27.1235C95.512 32.5954 98.8519 39.8401 99.459 47.5546C100.066 55.2691 97.9007 62.9471 93.3522 69.2075C88.8037 75.468 82.1707 79.9 74.6462 81.7065C67.1216 83.513 59.1994 82.5753 52.3045 79.0622"/><path stroke="#FCFDFD" d="M21.1975 82.194C20.3481 80.1914 21.5119 77.9072 23.6314 77.4173L49.9963 71.3228C52.8934 70.6531 55.253 73.6725 53.9031 76.3219L38.1046 107.328C36.7546 109.978 32.925 109.843 31.7639 107.106L21.1975 82.194Z"/></g></g><path fill="#CACBCB" d="M45.7119 64C45.6092 64 45.5299 63.972 45.4739 63.916C45.4179 63.8507 45.3899 63.7713 45.3899 63.678V54.536C45.3899 54.4333 45.4179 54.354 45.4739 54.298C45.5299 54.2327 45.6092 54.2 45.7119 54.2H46.3559C46.4679 54.2 46.5519 54.228 46.6079 54.284C46.6639 54.3307 46.6965 54.368 46.7059 54.396L51.3539 61.536V54.536C51.3539 54.4333 51.3819 54.354 51.4379 54.298C51.4939 54.2327 51.5732 54.2 51.6759 54.2H52.3479C52.4505 54.2 52.5299 54.2327 52.5859 54.298C52.6512 54.354 52.6839 54.4333 52.6839 54.536V63.664C52.6839 63.7573 52.6512 63.8367 52.5859 63.902C52.5299 63.9673 52.4552 64 52.3619 64H51.6899C51.5872 64 51.5079 63.972 51.4519 63.916C51.4052 63.86 51.3725 63.8227 51.3539 63.804L46.7199 56.734V63.678C46.7199 63.7713 46.6872 63.8507 46.6219 63.916C46.5659 63.972 46.4865 64 46.3839 64H45.7119ZM58.6666 64.14C57.8452 64.14 57.1452 63.986 56.5666 63.678C55.9972 63.37 55.5586 62.936 55.2506 62.376C54.9519 61.816 54.7839 61.158 54.7466 60.402C54.7372 59.9913 54.7326 59.5573 54.7326 59.1C54.7326 58.6333 54.7372 58.19 54.7466 57.77C54.7839 57.014 54.9519 56.3607 55.2506 55.81C55.5586 55.2593 56.0019 54.83 56.5806 54.522C57.1592 54.214 57.8546 54.06 58.6666 54.06C59.3292 54.06 59.9032 54.1533 60.3886 54.34C60.8739 54.5267 61.2706 54.7647 61.5786 55.054C61.8959 55.334 62.1292 55.628 62.2786 55.936C62.4372 56.244 62.5212 56.5147 62.5306 56.748C62.5399 56.832 62.5166 56.902 62.4606 56.958C62.4046 57.0047 62.3299 57.028 62.2366 57.028H61.4106C61.3172 57.028 61.2472 57.0093 61.2006 56.972C61.1632 56.9347 61.1259 56.8693 61.0886 56.776C61.0046 56.5333 60.8646 56.2953 60.6686 56.062C60.4819 55.8287 60.2252 55.6373 59.8986 55.488C59.5812 55.3293 59.1706 55.25 58.6666 55.25C57.9292 55.25 57.3319 55.4507 56.8746 55.852C56.4266 56.2533 56.1839 56.916 56.1466 57.84C56.1186 58.6707 56.1186 59.5013 56.1466 60.332C56.1839 61.2653 56.4312 61.9373 56.8886 62.348C57.3459 62.7493 57.9432 62.95 58.6806 62.95C59.1752 62.95 59.6139 62.8613 59.9966 62.684C60.3886 62.4973 60.6966 62.2127 60.9206 61.83C61.1446 61.4473 61.2566 60.962 61.2566 60.374V59.786H59.1566C59.0632 59.786 58.9839 59.758 58.9186 59.702C58.8626 59.6367 58.8346 59.5527 58.8346 59.45V59.002C58.8346 58.8993 58.8626 58.82 58.9186 58.764C58.9839 58.6987 59.0632 58.666 59.1566 58.666H62.3206C62.4232 58.666 62.5026 58.6987 62.5586 58.764C62.6146 58.82 62.6426 58.8993 62.6426 59.002V60.346C62.6426 61.1113 62.4839 61.7787 62.1666 62.348C61.8586 62.9173 61.4059 63.3607 60.8086 63.678C60.2112 63.986 59.4972 64.14 58.6666 64.14ZM64.9619 64C64.8592 64 64.7799 63.972 64.7239 63.916C64.6679 63.8507 64.6399 63.7713 64.6399 63.678V54.536C64.6399 54.4333 64.6679 54.354 64.7239 54.298C64.7799 54.2327 64.8592 54.2 64.9619 54.2H65.6059C65.7179 54.2 65.8019 54.228 65.8579 54.284C65.9139 54.3307 65.9465 54.368 65.9559 54.396L70.6039 61.536V54.536C70.6039 54.4333 70.6319 54.354 70.6879 54.298C70.7439 54.2327 70.8232 54.2 70.9259 54.2H71.5979C71.7005 54.2 71.7799 54.2327 71.8359 54.298C71.9012 54.354 71.9339 54.4333 71.9339 54.536V63.664C71.9339 63.7573 71.9012 63.8367 71.8359 63.902C71.7799 63.9673 71.7052 64 71.6119 64H70.9399C70.8372 64 70.7579 63.972 70.7019 63.916C70.6552 63.86 70.6225 63.8227 70.6039 63.804L65.9699 56.734V63.678C65.9699 63.7713 65.9372 63.8507 65.8719 63.916C65.8159 63.972 65.7365 64 65.6339 64H64.9619ZM78.1142 64C78.0116 64 77.9322 63.972 77.8762 63.916C77.8202 63.8507 77.7922 63.7713 77.7922 63.678V54.536C77.7922 54.4333 77.8202 54.354 77.8762 54.298C77.9322 54.2327 78.0116 54.2 78.1142 54.2H81.9502C82.6502 54.2 83.2196 54.3167 83.6582 54.55C84.1062 54.774 84.4329 55.082 84.6382 55.474C84.8529 55.866 84.9602 56.3047 84.9602 56.79C84.9602 57.1727 84.8949 57.504 84.7642 57.784C84.6429 58.0547 84.4889 58.2787 84.3022 58.456C84.1156 58.624 83.9336 58.7547 83.7562 58.848C84.1202 59.0253 84.4422 59.3147 84.7222 59.716C85.0116 60.1173 85.1562 60.6027 85.1562 61.172C85.1562 61.6853 85.0396 62.1567 84.8062 62.586C84.5729 63.0153 84.2229 63.3607 83.7562 63.622C83.2989 63.874 82.7296 64 82.0482 64H78.1142ZM79.1642 62.866H81.8662C82.4729 62.866 82.9396 62.7027 83.2662 62.376C83.5929 62.0493 83.7562 61.648 83.7562 61.172C83.7562 60.6773 83.5929 60.2713 83.2662 59.954C82.9396 59.6273 82.4729 59.464 81.8662 59.464H79.1642V62.866ZM79.1642 58.344H81.7402C82.3376 58.344 82.7902 58.2087 83.0982 57.938C83.4062 57.658 83.5602 57.28 83.5602 56.804C83.5602 56.328 83.4062 55.964 83.0982 55.712C82.7902 55.46 82.3376 55.334 81.7402 55.334H79.1642V58.344ZM88.9918 64.14C88.5251 64.14 88.1004 64.0467 87.7178 63.86C87.3351 63.6733 87.0271 63.4213 86.7938 63.104C86.5604 62.7867 86.4438 62.4273 86.4438 62.026C86.4438 61.382 86.7051 60.8687 87.2278 60.486C87.7504 60.1033 88.4318 59.8513 89.2718 59.73L91.3578 59.436V59.03C91.3578 58.582 91.2271 58.232 90.9658 57.98C90.7138 57.728 90.2984 57.602 89.7198 57.602C89.2998 57.602 88.9591 57.686 88.6978 57.854C88.4458 58.022 88.2684 58.2367 88.1658 58.498C88.1098 58.638 88.0118 58.708 87.8718 58.708H87.2418C87.1391 58.708 87.0598 58.68 87.0038 58.624C86.9571 58.5587 86.9338 58.484 86.9338 58.4C86.9338 58.26 86.9851 58.0873 87.0878 57.882C87.1998 57.6767 87.3678 57.476 87.5918 57.28C87.8158 57.084 88.1004 56.9207 88.4458 56.79C88.8004 56.65 89.2298 56.58 89.7338 56.58C90.2938 56.58 90.7651 56.6547 91.1478 56.804C91.5304 56.944 91.8291 57.1353 92.0438 57.378C92.2678 57.6207 92.4264 57.896 92.5198 58.204C92.6224 58.512 92.6738 58.8247 92.6738 59.142V63.678C92.6738 63.7713 92.6411 63.8507 92.5758 63.916C92.5198 63.972 92.4451 64 92.3518 64H91.7078C91.6051 64 91.5258 63.972 91.4698 63.916C91.4138 63.8507 91.3858 63.7713 91.3858 63.678V63.076C91.2644 63.244 91.1011 63.412 90.8958 63.58C90.6904 63.7387 90.4338 63.874 90.1258 63.986C89.8178 64.0887 89.4398 64.14 88.9918 64.14ZM89.2858 63.09C89.6684 63.09 90.0184 63.0107 90.3358 62.852C90.6531 62.684 90.9004 62.4273 91.0778 62.082C91.2644 61.7367 91.3578 61.3027 91.3578 60.78V60.388L89.7338 60.626C89.0711 60.7193 88.5718 60.878 88.2358 61.102C87.8998 61.3167 87.7318 61.592 87.7318 61.928C87.7318 62.1893 87.8064 62.4087 87.9558 62.586C88.1144 62.754 88.3104 62.88 88.5438 62.964C88.7864 63.048 89.0338 63.09 89.2858 63.09ZM95.0224 64C94.9291 64 94.8497 63.972 94.7844 63.916C94.7284 63.8507 94.7004 63.7713 94.7004 63.678V54.382C94.7004 54.2887 94.7284 54.214 94.7844 54.158C94.8497 54.0927 94.9291 54.06 95.0224 54.06H95.6804C95.7831 54.06 95.8624 54.0927 95.9184 54.158C95.9744 54.214 96.0024 54.2887 96.0024 54.382V63.678C96.0024 63.7713 95.9744 63.8507 95.9184 63.916C95.8624 63.972 95.7831 64 95.6804 64H95.0224ZM100.121 64.14C99.654 64.14 99.2294 64.0467 98.8467 63.86C98.464 63.6733 98.156 63.4213 97.9227 63.104C97.6894 62.7867 97.5727 62.4273 97.5727 62.026C97.5727 61.382 97.834 60.8687 98.3567 60.486C98.8794 60.1033 99.5607 59.8513 100.401 59.73L102.487 59.436V59.03C102.487 58.582 102.356 58.232 102.095 57.98C101.843 57.728 101.427 57.602 100.849 57.602C100.429 57.602 100.088 57.686 99.8267 57.854C99.5747 58.022 99.3974 58.2367 99.2947 58.498C99.2387 58.638 99.1407 58.708 99.0007 58.708H98.3707C98.268 58.708 98.1887 58.68 98.1327 58.624C98.086 58.5587 98.0627 58.484 98.0627 58.4C98.0627 58.26 98.114 58.0873 98.2167 57.882C98.3287 57.6767 98.4967 57.476 98.7207 57.28C98.9447 57.084 99.2294 56.9207 99.5747 56.79C99.9294 56.65 100.359 56.58 100.863 56.58C101.423 56.58 101.894 56.6547 102.277 56.804C102.659 56.944 102.958 57.1353 103.173 57.378C103.397 57.6207 103.555 57.896 103.649 58.204C103.751 58.512 103.803 58.8247 103.803 59.142V63.678C103.803 63.7713 103.77 63.8507 103.705 63.916C103.649 63.972 103.574 64 103.481 64H102.837C102.734 64 102.655 63.972 102.599 63.916C102.543 63.8507 102.515 63.7713 102.515 63.678V63.076C102.393 63.244 102.23 63.412 102.025 63.58C101.819 63.7387 101.563 63.874 101.255 63.986C100.947 64.0887 100.569 64.14 100.121 64.14ZM100.415 63.09C100.797 63.09 101.147 63.0107 101.465 62.852C101.782 62.684 102.029 62.4273 102.207 62.082C102.393 61.7367 102.487 61.3027 102.487 60.78V60.388L100.863 60.626C100.2 60.7193 99.7007 60.878 99.3647 61.102C99.0287 61.3167 98.8607 61.592 98.8607 61.928C98.8607 62.1893 98.9354 62.4087 99.0847 62.586C99.2434 62.754 99.4394 62.88 99.6727 62.964C99.9154 63.048 100.163 63.09 100.415 63.09ZM106.137 64C106.044 64 105.965 63.972 105.899 63.916C105.843 63.8507 105.815 63.7713 105.815 63.678V57.042C105.815 56.9487 105.843 56.874 105.899 56.818C105.965 56.7527 106.044 56.72 106.137 56.72H106.795C106.889 56.72 106.963 56.7527 107.019 56.818C107.085 56.874 107.117 56.9487 107.117 57.042V57.658C107.36 57.3407 107.663 57.084 108.027 56.888C108.401 56.6827 108.877 56.58 109.455 56.58C110.062 56.58 110.575 56.7153 110.995 56.986C111.425 57.2473 111.747 57.616 111.961 58.092C112.176 58.5587 112.283 59.1047 112.283 59.73V63.678C112.283 63.7713 112.255 63.8507 112.199 63.916C112.143 63.972 112.069 64 111.975 64H111.275C111.182 64 111.103 63.972 111.037 63.916C110.981 63.8507 110.953 63.7713 110.953 63.678V59.8C110.953 59.1467 110.795 58.638 110.477 58.274C110.16 57.9007 109.693 57.714 109.077 57.714C108.499 57.714 108.032 57.9007 107.677 58.274C107.332 58.638 107.159 59.1467 107.159 59.8V63.678C107.159 63.7713 107.127 63.8507 107.061 63.916C107.005 63.972 106.931 64 106.837 64H106.137ZM117.246 64.14C116.583 64.14 116.009 64.014 115.524 63.762C115.048 63.5007 114.679 63.132 114.418 62.656C114.156 62.1707 114.016 61.592 113.998 60.92C113.988 60.78 113.984 60.5933 113.984 60.36C113.984 60.1267 113.988 59.94 113.998 59.8C114.016 59.128 114.156 58.554 114.418 58.078C114.679 57.5927 115.048 57.224 115.524 56.972C116.009 56.7107 116.583 56.58 117.246 56.58C117.787 56.58 118.249 56.6547 118.632 56.804C119.024 56.9533 119.346 57.1447 119.598 57.378C119.85 57.6113 120.036 57.8633 120.158 58.134C120.288 58.4047 120.358 58.6613 120.368 58.904C120.377 58.9973 120.349 59.072 120.284 59.128C120.218 59.184 120.139 59.212 120.046 59.212H119.374C119.28 59.212 119.21 59.1933 119.164 59.156C119.117 59.1093 119.07 59.0347 119.024 58.932C118.856 58.4747 118.627 58.1527 118.338 57.966C118.048 57.7793 117.689 57.686 117.26 57.686C116.7 57.686 116.242 57.8587 115.888 58.204C115.542 58.5493 115.356 59.1047 115.328 59.87C115.318 60.206 115.318 60.5327 115.328 60.85C115.356 61.6247 115.542 62.1847 115.888 62.53C116.242 62.866 116.7 63.034 117.26 63.034C117.689 63.034 118.048 62.9407 118.338 62.754C118.627 62.5673 118.856 62.2453 119.024 61.788C119.07 61.6853 119.117 61.6153 119.164 61.578C119.21 61.5313 119.28 61.508 119.374 61.508H120.046C120.139 61.508 120.218 61.536 120.284 61.592C120.349 61.648 120.377 61.7227 120.368 61.816C120.358 62.012 120.316 62.2127 120.242 62.418C120.167 62.6233 120.046 62.8333 119.878 63.048C119.719 63.2533 119.518 63.44 119.276 63.608C119.033 63.7667 118.739 63.8973 118.394 64C118.058 64.0933 117.675 64.14 117.246 64.14ZM124.928 64.14C123.967 64.14 123.201 63.846 122.632 63.258C122.063 62.6607 121.75 61.8487 121.694 60.822C121.685 60.7007 121.68 60.5467 121.68 60.36C121.68 60.164 121.685 60.0053 121.694 59.884C121.731 59.2213 121.885 58.6427 122.156 58.148C122.427 57.644 122.795 57.2567 123.262 56.986C123.738 56.7153 124.293 56.58 124.928 56.58C125.637 56.58 126.23 56.7293 126.706 57.028C127.191 57.3267 127.56 57.7513 127.812 58.302C128.064 58.8527 128.19 59.4967 128.19 60.234V60.472C128.19 60.5747 128.157 60.654 128.092 60.71C128.036 60.766 127.961 60.794 127.868 60.794H123.024C123.024 60.8033 123.024 60.822 123.024 60.85C123.024 60.878 123.024 60.9013 123.024 60.92C123.043 61.3027 123.127 61.662 123.276 61.998C123.425 62.3247 123.64 62.5907 123.92 62.796C124.2 63.0013 124.536 63.104 124.928 63.104C125.264 63.104 125.544 63.0527 125.768 62.95C125.992 62.8473 126.174 62.7353 126.314 62.614C126.454 62.4833 126.547 62.3853 126.594 62.32C126.678 62.1987 126.743 62.1287 126.79 62.11C126.837 62.082 126.911 62.068 127.014 62.068H127.686C127.779 62.068 127.854 62.096 127.91 62.152C127.975 62.1987 128.003 62.2687 127.994 62.362C127.985 62.502 127.91 62.6747 127.77 62.88C127.63 63.076 127.429 63.272 127.168 63.468C126.907 63.664 126.589 63.8273 126.216 63.958C125.843 64.0793 125.413 64.14 124.928 64.14ZM123.024 59.828H126.86V59.786C126.86 59.366 126.781 58.9927 126.622 58.666C126.473 58.3393 126.253 58.0827 125.964 57.896C125.675 57.7 125.329 57.602 124.928 57.602C124.527 57.602 124.181 57.7 123.892 57.896C123.612 58.0827 123.397 58.3393 123.248 58.666C123.099 58.9927 123.024 59.366 123.024 59.786V59.828Z"/><path fill="#FCFDFD" d="M47.9994 95.04H53.1594L64.9594 113.56H64.5994V95.04H69.3194V121H64.5194L51.9594 101.36H52.7194V121H47.9994V95.04ZM87.1913 94.76H91.7513V111.2H96.2713V115.24H91.7513V121H87.0713V115.24H73.9113V111.68L87.1913 94.76ZM87.3113 101.76L79.5113 111.68H87.3113V101.76ZM101.26 126.44L97.7803 124.68C98.6603 124.24 99.4403 123.733 100.12 123.16C100.8 122.587 101.247 121.933 101.46 121.2C100.727 121.053 100.094 120.747 99.5603 120.28C99.0403 119.813 98.7803 119.2 98.7803 118.44C98.7803 117.64 99.087 116.967 99.7003 116.42C100.314 115.873 101.087 115.6 102.02 115.6C103.207 115.6 104.134 116.013 104.8 116.84C105.48 117.667 105.82 118.647 105.82 119.78C105.82 121.073 105.414 122.327 104.6 123.54C103.787 124.767 102.674 125.733 101.26 126.44ZM109.338 121V116.56C109.338 115.107 109.558 113.873 109.998 112.86C110.438 111.847 111.091 110.993 111.958 110.3C112.838 109.593 113.938 108.987 115.258 108.48L120.578 106.44C121.738 105.973 122.591 105.4 123.138 104.72C123.698 104.04 123.978 103.2 123.978 102.2C123.978 101.2 123.611 100.36 122.878 99.68C122.158 98.9867 121.124 98.64 119.778 98.64C118.484 98.64 117.398 98.9667 116.518 99.62C115.651 100.26 115.151 101.2 115.018 102.44H109.778C109.818 100.667 110.278 99.1933 111.158 98.02C112.038 96.8467 113.218 95.9733 114.698 95.4C116.178 94.8133 117.844 94.52 119.698 94.52C121.444 94.52 123.024 94.8533 124.438 95.52C125.851 96.1733 126.971 97.0933 127.798 98.28C128.638 99.4533 129.058 100.827 129.058 102.4C129.058 103.733 128.811 104.907 128.318 105.92C127.837 106.933 127.104 107.82 126.118 108.58C125.131 109.34 123.884 110.013 122.378 110.6L117.018 112.68C115.978 113.08 115.224 113.527 114.758 114.02C114.291 114.5 114.058 115.133 114.058 115.92V116.68H128.898V121H109.338ZM143.036 121.56C141.25 121.56 139.643 121.213 138.216 120.52C136.79 119.813 135.656 118.847 134.816 117.62C133.976 116.38 133.556 114.947 133.556 113.32H138.476C138.53 114.52 138.963 115.473 139.776 116.18C140.603 116.887 141.636 117.24 142.876 117.24C144.33 117.24 145.503 116.827 146.396 116C147.29 115.16 147.936 113.987 148.336 112.48C148.75 110.973 148.956 109.213 148.956 107.2C148.956 106.8 148.943 106.413 148.916 106.04C148.903 105.653 148.863 105.253 148.796 104.84C148.543 106.307 148.063 107.493 147.356 108.4C146.65 109.293 145.79 109.947 144.776 110.36C143.776 110.76 142.69 110.96 141.516 110.96C139.903 110.96 138.476 110.613 137.236 109.92C136.01 109.213 135.043 108.247 134.336 107.02C133.63 105.78 133.276 104.36 133.276 102.76C133.276 101.107 133.67 99.66 134.456 98.42C135.256 97.18 136.356 96.22 137.756 95.54C139.17 94.86 140.796 94.52 142.636 94.52C144.183 94.52 145.623 94.8333 146.956 95.46C148.303 96.0867 149.476 96.98 150.476 98.14C151.476 99.2867 152.256 100.66 152.816 102.26C153.39 103.86 153.676 105.64 153.676 107.6C153.676 110.44 153.283 112.907 152.496 115C151.71 117.093 150.53 118.713 148.956 119.86C147.383 120.993 145.41 121.56 143.036 121.56ZM142.676 107.08C143.49 107.08 144.236 106.907 144.916 106.56C145.61 106.213 146.163 105.733 146.576 105.12C146.99 104.507 147.196 103.8 147.196 103C147.196 101.72 146.743 100.707 145.836 99.96C144.943 99.2133 143.876 98.84 142.636 98.84C141.396 98.84 140.336 99.2133 139.456 99.96C138.59 100.707 138.156 101.72 138.156 103C138.156 104.28 138.596 105.28 139.476 106C140.356 106.72 141.423 107.08 142.676 107.08ZM167.45 121.56C165.584 121.56 163.937 121.24 162.51 120.6C161.084 119.947 159.957 119 159.13 117.76C158.317 116.52 157.89 115.013 157.85 113.24H162.65C162.65 114.573 163.11 115.573 164.03 116.24C164.95 116.907 166.09 117.24 167.45 117.24C168.904 117.24 170.09 116.773 171.01 115.84C171.944 114.893 172.41 113.733 172.41 112.36C172.41 109.693 170.624 108.36 167.05 108.36H159.13L160.33 95.04H175.89V99.36H164.13L165.05 98L164.29 105.72L163.89 105.28C164.53 105.133 165.29 105.027 166.17 104.96C167.05 104.88 167.81 104.84 168.45 104.84C171.13 104.84 173.264 105.493 174.85 106.8C176.45 108.093 177.25 109.947 177.25 112.36C177.25 114.08 176.844 115.64 176.03 117.04C175.217 118.427 174.077 119.527 172.61 120.34C171.144 121.153 169.424 121.56 167.45 121.56ZM179.812 118.24C179.812 117.333 180.118 116.573 180.732 115.96C181.345 115.347 182.132 115.04 183.092 115.04C184.052 115.04 184.852 115.347 185.492 115.96C186.132 116.573 186.452 117.333 186.452 118.24C186.452 119.133 186.132 119.88 185.492 120.48C184.852 121.067 184.052 121.36 183.092 121.36C182.132 121.36 181.345 121.06 180.732 120.46C180.118 119.86 179.812 119.12 179.812 118.24ZM200.125 121.56C197.992 121.56 196.112 121.067 194.485 120.08C192.872 119.093 191.605 117.6 190.685 115.6C189.779 113.6 189.325 111.08 189.325 108.04C189.325 104.987 189.779 102.46 190.685 100.46C191.605 98.46 192.872 96.9733 194.485 96C196.112 95.0133 197.992 94.52 200.125 94.52C202.232 94.52 204.092 95.0133 205.705 96C207.332 96.9733 208.599 98.46 209.505 100.46C210.425 102.46 210.885 104.987 210.885 108.04C210.885 111.08 210.425 113.6 209.505 115.6C208.599 117.6 207.332 119.093 205.705 120.08C204.092 121.067 202.232 121.56 200.125 121.56ZM200.125 117.24C201.992 117.24 203.439 116.453 204.465 114.88C205.492 113.293 206.005 111.013 206.005 108.04C206.005 105.067 205.492 102.787 204.465 101.2C203.439 99.6 201.992 98.8 200.125 98.8C198.245 98.8 196.785 99.6 195.745 101.2C194.719 102.787 194.205 105.067 194.205 108.04C194.205 111.013 194.719 113.293 195.745 114.88C196.785 116.453 198.245 117.24 200.125 117.24ZM225.278 121.56C223.904 121.56 222.578 121.373 221.298 121C220.018 120.627 218.871 120.073 217.858 119.34C216.844 118.607 216.038 117.7 215.438 116.62C214.851 115.527 214.558 114.267 214.558 112.84H219.518C219.571 113.747 219.844 114.533 220.338 115.2C220.831 115.853 221.498 116.36 222.338 116.72C223.191 117.067 224.171 117.24 225.278 117.24C226.904 117.24 228.178 116.867 229.098 116.12C230.018 115.373 230.478 114.427 230.478 113.28C230.478 112.533 230.291 111.893 229.918 111.36C229.544 110.813 228.971 110.4 228.198 110.12C227.424 109.827 226.438 109.68 225.238 109.68H221.798V105.96H224.718C226.238 105.96 227.431 105.633 228.298 104.98C229.164 104.327 229.598 103.44 229.598 102.32C229.598 101.32 229.224 100.487 228.478 99.82C227.731 99.14 226.611 98.8 225.118 98.8C223.904 98.8 222.818 99.0467 221.858 99.54C220.911 100.033 220.304 100.893 220.038 102.12H215.078C215.264 100.347 215.798 98.9 216.678 97.78C217.571 96.66 218.724 95.84 220.138 95.32C221.551 94.7867 223.144 94.52 224.918 94.52C226.798 94.52 228.471 94.8267 229.938 95.44C231.404 96.0533 232.558 96.9067 233.398 98C234.251 99.08 234.678 100.333 234.678 101.76C234.678 103.08 234.318 104.233 233.598 105.22C232.878 106.193 231.811 106.92 230.398 107.4C231.971 107.933 233.231 108.727 234.178 109.78C235.124 110.833 235.598 112.147 235.598 113.72C235.598 115.253 235.164 116.613 234.298 117.8C233.444 118.973 232.244 119.893 230.698 120.56C229.151 121.227 227.344 121.56 225.278 121.56Z"/><path fill="#FCFDFD" d="M80.7848 186.5C80.6648 186.5 80.5688 186.468 80.4968 186.404C80.4328 186.332 80.3888 186.244 80.3648 186.14L78.9368 178.448C78.9368 178.424 78.9328 178.404 78.9248 178.388C78.9248 178.372 78.9248 178.36 78.9248 178.352C78.9248 178.28 78.9488 178.22 78.9968 178.172C79.0528 178.124 79.1128 178.1 79.1768 178.1H80.2327C80.4328 178.1 80.5448 178.18 80.5688 178.34L81.5648 183.776L82.6448 180.26C82.6688 180.196 82.7088 180.132 82.7648 180.068C82.8288 179.996 82.9208 179.96 83.0408 179.96H83.6888C83.8168 179.96 83.9088 179.996 83.9648 180.068C84.0208 180.132 84.0568 180.196 84.0728 180.26L85.1648 183.764L86.1608 178.34C86.1848 178.18 86.2968 178.1 86.4968 178.1H87.5528C87.6168 178.1 87.6728 178.124 87.7208 178.172C87.7688 178.22 87.7928 178.28 87.7928 178.352C87.7928 178.36 87.7928 178.372 87.7928 178.388C87.7928 178.404 87.7888 178.424 87.7808 178.448L86.3528 186.14C86.3368 186.244 86.2928 186.332 86.2208 186.404C86.1488 186.468 86.0528 186.5 85.9328 186.5H85.1288C85.0088 186.5 84.9128 186.468 84.8408 186.404C84.7768 186.34 84.7328 186.272 84.7088 186.2L83.3648 182.192L82.0208 186.2C81.9888 186.272 81.9408 186.34 81.8768 186.404C81.8128 186.468 81.7168 186.5 81.5888 186.5H80.7848ZM89.3456 186.5C89.2656 186.5 89.1976 186.472 89.1416 186.416C89.0856 186.36 89.0576 186.292 89.0576 186.212V180.548C89.0576 180.468 89.0856 180.4 89.1416 180.344C89.1976 180.288 89.2656 180.26 89.3456 180.26H90.3416C90.4296 180.26 90.4976 180.288 90.5456 180.344C90.6016 180.4 90.6296 180.468 90.6296 180.548V186.212C90.6296 186.292 90.6016 186.36 90.5456 186.416C90.4976 186.472 90.4296 186.5 90.3416 186.5H89.3456ZM89.2976 179.228C89.2096 179.228 89.1376 179.204 89.0816 179.156C89.0336 179.1 89.0096 179.028 89.0096 178.94V178.076C89.0096 177.996 89.0336 177.928 89.0816 177.872C89.1376 177.816 89.2096 177.788 89.2976 177.788H90.3896C90.4776 177.788 90.5496 177.816 90.6056 177.872C90.6616 177.928 90.6896 177.996 90.6896 178.076V178.94C90.6896 179.028 90.6616 179.1 90.6056 179.156C90.5496 179.204 90.4776 179.228 90.3896 179.228H89.2976ZM95.0417 186.5C94.5617 186.5 94.1577 186.416 93.8297 186.248C93.5017 186.08 93.2577 185.832 93.0977 185.504C92.9377 185.168 92.8577 184.752 92.8577 184.256V181.532H91.9097C91.8297 181.532 91.7617 181.504 91.7057 181.448C91.6497 181.392 91.6217 181.324 91.6217 181.244V180.548C91.6217 180.468 91.6497 180.4 91.7057 180.344C91.7617 180.288 91.8297 180.26 91.9097 180.26H92.8577V178.268C92.8577 178.188 92.8817 178.12 92.9297 178.064C92.9857 178.008 93.0577 177.98 93.1457 177.98H94.1177C94.1977 177.98 94.2657 178.008 94.3217 178.064C94.3777 178.12 94.4057 178.188 94.4057 178.268V180.26H95.9057C95.9857 180.26 96.0537 180.288 96.1097 180.344C96.1657 180.4 96.1937 180.468 96.1937 180.548V181.244C96.1937 181.324 96.1657 181.392 96.1097 181.448C96.0537 181.504 95.9857 181.532 95.9057 181.532H94.4057V184.136C94.4057 184.464 94.4617 184.72 94.5737 184.904C94.6937 185.088 94.8977 185.18 95.1857 185.18H96.0137C96.0937 185.18 96.1617 185.208 96.2177 185.264C96.2737 185.32 96.3017 185.388 96.3017 185.468V186.212C96.3017 186.292 96.2737 186.36 96.2177 186.416C96.1617 186.472 96.0937 186.5 96.0137 186.5H95.0417ZM97.6662 186.5C97.5862 186.5 97.5182 186.472 97.4622 186.416C97.4062 186.36 97.3782 186.292 97.3782 186.212V178.268C97.3782 178.188 97.4062 178.12 97.4622 178.064C97.5182 178.008 97.5862 177.98 97.6662 177.98H98.7342C98.8222 177.98 98.8902 178.008 98.9382 178.064C98.9942 178.12 99.0222 178.188 99.0222 178.268V181.004C99.2382 180.748 99.5022 180.54 99.8142 180.38C100.126 180.22 100.51 180.14 100.966 180.14C101.454 180.14 101.878 180.252 102.238 180.476C102.606 180.692 102.89 181 103.09 181.4C103.29 181.8 103.39 182.28 103.39 182.84V186.212C103.39 186.292 103.362 186.36 103.306 186.416C103.25 186.472 103.182 186.5 103.102 186.5H102.022C101.942 186.5 101.874 186.472 101.818 186.416C101.762 186.36 101.734 186.292 101.734 186.212V182.912C101.734 182.448 101.618 182.084 101.386 181.82C101.162 181.556 100.834 181.424 100.402 181.424C99.9862 181.424 99.6502 181.556 99.3942 181.82C99.1462 182.084 99.0222 182.448 99.0222 182.912V186.212C99.0222 186.292 98.9942 186.36 98.9382 186.416C98.8902 186.472 98.8222 186.5 98.7342 186.5H97.6662ZM107.229 186.62C106.813 186.62 106.445 186.552 106.125 186.416C105.813 186.272 105.553 186.072 105.345 185.816C105.137 185.56 104.977 185.26 104.865 184.916C104.753 184.564 104.689 184.18 104.673 183.764C104.665 183.62 104.661 183.492 104.661 183.38C104.661 183.26 104.665 183.128 104.673 182.984C104.689 182.584 104.749 182.212 104.853 181.868C104.965 181.524 105.125 181.224 105.333 180.968C105.549 180.704 105.813 180.5 106.125 180.356C106.445 180.212 106.813 180.14 107.229 180.14C107.661 180.14 108.025 180.216 108.321 180.368C108.625 180.512 108.877 180.7 109.077 180.932V178.268C109.077 178.188 109.101 178.12 109.149 178.064C109.205 178.008 109.277 177.98 109.365 177.98H110.385C110.465 177.98 110.533 178.008 110.589 178.064C110.645 178.12 110.673 178.188 110.673 178.268V186.212C110.673 186.292 110.645 186.36 110.589 186.416C110.533 186.472 110.465 186.5 110.385 186.5H109.437C109.349 186.5 109.277 186.472 109.221 186.416C109.173 186.36 109.149 186.292 109.149 186.212V185.768C108.949 186.016 108.693 186.22 108.381 186.38C108.077 186.54 107.693 186.62 107.229 186.62ZM107.673 185.336C108.009 185.336 108.277 185.26 108.477 185.108C108.677 184.956 108.825 184.764 108.921 184.532C109.017 184.292 109.069 184.048 109.077 183.8C109.085 183.656 109.089 183.504 109.089 183.344C109.089 183.176 109.085 183.02 109.077 182.876C109.069 182.636 109.013 182.408 108.909 182.192C108.805 181.968 108.653 181.784 108.453 181.64C108.253 181.496 107.993 181.424 107.673 181.424C107.337 181.424 107.069 181.5 106.869 181.652C106.677 181.796 106.537 181.988 106.449 182.228C106.361 182.468 106.309 182.732 106.293 183.02C106.285 183.26 106.285 183.5 106.293 183.74C106.309 184.028 106.361 184.292 106.449 184.532C106.537 184.772 106.677 184.968 106.869 185.12C107.069 185.264 107.337 185.336 107.673 185.336ZM112.56 186.5C112.48 186.5 112.412 186.472 112.356 186.416C112.3 186.36 112.272 186.292 112.272 186.212V180.56C112.272 180.472 112.3 180.4 112.356 180.344C112.412 180.288 112.48 180.26 112.56 180.26H113.532C113.612 180.26 113.68 180.288 113.736 180.344C113.8 180.4 113.832 180.472 113.832 180.56V181.052C114.016 180.796 114.252 180.6 114.54 180.464C114.836 180.328 115.176 180.26 115.56 180.26H116.052C116.14 180.26 116.208 180.288 116.256 180.344C116.312 180.4 116.34 180.468 116.34 180.548V181.412C116.34 181.492 116.312 181.56 116.256 181.616C116.208 181.672 116.14 181.7 116.052 181.7H115.116C114.732 181.7 114.432 181.808 114.216 182.024C114.008 182.24 113.904 182.536 113.904 182.912V186.212C113.904 186.292 113.876 186.36 113.82 186.416C113.764 186.472 113.692 186.5 113.604 186.5H112.56ZM118.995 186.62C118.579 186.62 118.203 186.54 117.867 186.38C117.531 186.212 117.263 185.992 117.063 185.72C116.871 185.44 116.775 185.128 116.775 184.784C116.775 184.224 116.999 183.78 117.447 183.452C117.903 183.116 118.503 182.892 119.247 182.78L120.891 182.54V182.288C120.891 181.952 120.807 181.692 120.639 181.508C120.471 181.324 120.183 181.232 119.775 181.232C119.487 181.232 119.251 181.292 119.067 181.412C118.891 181.524 118.759 181.676 118.671 181.868C118.607 181.972 118.515 182.024 118.395 182.024H117.447C117.359 182.024 117.291 182 117.243 181.952C117.203 181.904 117.183 181.84 117.183 181.76C117.191 181.632 117.243 181.476 117.339 181.292C117.435 181.108 117.587 180.932 117.795 180.764C118.003 180.588 118.271 180.44 118.599 180.32C118.927 180.2 119.323 180.14 119.787 180.14C120.291 180.14 120.715 180.204 121.059 180.332C121.411 180.452 121.691 180.616 121.899 180.824C122.107 181.032 122.259 181.276 122.355 181.556C122.451 181.836 122.499 182.132 122.499 182.444V186.212C122.499 186.292 122.471 186.36 122.415 186.416C122.359 186.472 122.291 186.5 122.211 186.5H121.239C121.151 186.5 121.079 186.472 121.023 186.416C120.975 186.36 120.951 186.292 120.951 186.212V185.744C120.847 185.896 120.707 186.04 120.531 186.176C120.355 186.304 120.139 186.412 119.883 186.5C119.635 186.58 119.339 186.62 118.995 186.62ZM119.403 185.48C119.683 185.48 119.935 185.42 120.159 185.3C120.391 185.18 120.571 184.996 120.699 184.748C120.835 184.492 120.903 184.172 120.903 183.788V183.536L119.703 183.728C119.231 183.8 118.879 183.916 118.647 184.076C118.415 184.236 118.299 184.432 118.299 184.664C118.299 184.84 118.351 184.992 118.455 185.12C118.567 185.24 118.707 185.332 118.875 185.396C119.043 185.452 119.219 185.48 119.403 185.48ZM125.684 186.5C125.572 186.5 125.488 186.472 125.432 186.416C125.376 186.36 125.328 186.288 125.288 186.2L123.572 180.632C123.564 180.592 123.56 180.556 123.56 180.524C123.56 180.452 123.584 180.392 123.632 180.344C123.688 180.288 123.748 180.26 123.812 180.26H124.7C124.796 180.26 124.872 180.288 124.928 180.344C124.984 180.392 125.016 180.44 125.024 180.488L126.2 184.46L127.448 180.524C127.464 180.468 127.5 180.412 127.556 180.356C127.612 180.292 127.696 180.26 127.808 180.26H128.408C128.52 180.26 128.604 180.292 128.66 180.356C128.716 180.412 128.752 180.468 128.768 180.524L130.016 184.46L131.192 180.488C131.2 180.44 131.228 180.392 131.276 180.344C131.332 180.288 131.408 180.26 131.504 180.26H132.392C132.464 180.26 132.524 180.288 132.572 180.344C132.628 180.392 132.656 180.452 132.656 180.524C132.656 180.556 132.648 180.592 132.632 180.632L130.916 186.2C130.892 186.288 130.848 186.36 130.784 186.416C130.728 186.472 130.644 186.5 130.532 186.5H129.752C129.64 186.5 129.552 186.472 129.488 186.416C129.424 186.36 129.38 186.288 129.355 186.2L128.108 182.408L126.86 186.2C126.828 186.288 126.78 186.36 126.715 186.416C126.66 186.472 126.572 186.5 126.452 186.5H125.684Z"/><path fill="#FCFDFD" d="M51 163H160.5V161H51V163ZM166.5 169V195H168.5V169H166.5ZM160.5 201H51V203H160.5V201ZM45 195V169H43V195H45ZM51 201C47.6863 201 45 198.314 45 195H43C43 199.418 46.5817 203 51 203V201ZM166.5 195C166.5 198.314 163.814 201 160.5 201V203C164.918 203 168.5 199.418 168.5 195H166.5ZM160.5 163C163.814 163 166.5 165.686 166.5 169H168.5C168.5 164.582 164.918 161 160.5 161V163ZM51 161C46.5817 161 43 164.582 43 169H45C45 165.686 47.6863 163 51 163V161Z"/><path fill="#FCFDFD" d="M175.5 169C175.5 165.134 178.634 162 182.5 162H292C295.866 162 299 165.134 299 169V195C299 198.866 295.866 202 292 202H182.5C178.634 202 175.5 198.866 175.5 195V169Z"/><path fill="#141D3E" d="M223.767 186C223.687 186 223.619 185.972 223.563 185.916C223.507 185.86 223.479 185.792 223.479 185.712V177.9C223.479 177.812 223.507 177.74 223.563 177.684C223.619 177.628 223.687 177.6 223.767 177.6H228.975C229.063 177.6 229.135 177.628 229.191 177.684C229.247 177.74 229.275 177.812 229.275 177.9V178.74C229.275 178.828 229.247 178.9 229.191 178.956C229.135 179.004 229.063 179.028 228.975 179.028H225.123V181.308H228.735C228.823 181.308 228.895 181.336 228.951 181.392C229.007 181.448 229.035 181.52 229.035 181.608V182.448C229.035 182.528 229.007 182.596 228.951 182.652C228.895 182.708 228.823 182.736 228.735 182.736H225.123V185.712C225.123 185.792 225.095 185.86 225.039 185.916C224.983 185.972 224.911 186 224.823 186H223.767ZM232.764 186.12C232.276 186.12 231.852 186.012 231.492 185.796C231.14 185.572 230.868 185.26 230.676 184.86C230.484 184.452 230.388 183.972 230.388 183.42V180.048C230.388 179.968 230.416 179.9 230.472 179.844C230.528 179.788 230.596 179.76 230.676 179.76H231.732C231.82 179.76 231.888 179.788 231.936 179.844C231.992 179.9 232.02 179.968 232.02 180.048V183.348C232.02 184.34 232.456 184.836 233.328 184.836C233.744 184.836 234.072 184.704 234.312 184.44C234.56 184.176 234.684 183.812 234.684 183.348V180.048C234.684 179.968 234.712 179.9 234.768 179.844C234.824 179.788 234.892 179.76 234.972 179.76H236.028C236.108 179.76 236.176 179.788 236.232 179.844C236.288 179.9 236.316 179.968 236.316 180.048V185.712C236.316 185.792 236.288 185.86 236.232 185.916C236.176 185.972 236.108 186 236.028 186H235.056C234.968 186 234.896 185.972 234.84 185.916C234.792 185.86 234.768 185.792 234.768 185.712V185.22C234.552 185.5 234.284 185.72 233.964 185.88C233.644 186.04 233.244 186.12 232.764 186.12ZM238.189 186C238.109 186 238.041 185.972 237.985 185.916C237.929 185.86 237.901 185.792 237.901 185.712V180.048C237.901 179.968 237.929 179.9 237.985 179.844C238.041 179.788 238.109 179.76 238.189 179.76H239.173C239.253 179.76 239.321 179.788 239.377 179.844C239.433 179.9 239.461 179.968 239.461 180.048V180.54C239.669 180.284 239.933 180.072 240.253 179.904C240.581 179.728 240.985 179.64 241.465 179.64C241.953 179.64 242.377 179.752 242.737 179.976C243.097 180.192 243.373 180.5 243.565 180.9C243.765 181.3 243.865 181.78 243.865 182.34V185.712C243.865 185.792 243.837 185.86 243.781 185.916C243.725 185.972 243.657 186 243.577 186H242.521C242.441 186 242.373 185.972 242.317 185.916C242.261 185.86 242.233 185.792 242.233 185.712V182.412C242.233 181.948 242.117 181.584 241.885 181.32C241.661 181.056 241.333 180.924 240.901 180.924C240.485 180.924 240.153 181.056 239.905 181.32C239.657 181.584 239.533 181.948 239.533 182.412V185.712C239.533 185.792 239.505 185.86 239.449 185.916C239.393 185.972 239.325 186 239.245 186H238.189ZM247.706 186.12C247.29 186.12 246.922 186.052 246.602 185.916C246.29 185.772 246.03 185.572 245.822 185.316C245.614 185.06 245.454 184.76 245.342 184.416C245.23 184.064 245.166 183.68 245.15 183.264C245.142 183.12 245.138 182.992 245.138 182.88C245.138 182.76 245.142 182.628 245.15 182.484C245.166 182.084 245.226 181.712 245.33 181.368C245.442 181.024 245.602 180.724 245.81 180.468C246.026 180.204 246.29 180 246.602 179.856C246.922 179.712 247.29 179.64 247.706 179.64C248.138 179.64 248.502 179.716 248.798 179.868C249.102 180.012 249.354 180.2 249.554 180.432V177.768C249.554 177.688 249.578 177.62 249.626 177.564C249.682 177.508 249.754 177.48 249.842 177.48H250.862C250.942 177.48 251.01 177.508 251.066 177.564C251.122 177.62 251.15 177.688 251.15 177.768V185.712C251.15 185.792 251.122 185.86 251.066 185.916C251.01 185.972 250.942 186 250.862 186H249.914C249.826 186 249.754 185.972 249.698 185.916C249.65 185.86 249.626 185.792 249.626 185.712V185.268C249.426 185.516 249.17 185.72 248.858 185.88C248.554 186.04 248.17 186.12 247.706 186.12ZM248.15 184.836C248.486 184.836 248.754 184.76 248.954 184.608C249.154 184.456 249.302 184.264 249.398 184.032C249.494 183.792 249.546 183.548 249.554 183.3C249.562 183.156 249.566 183.004 249.566 182.844C249.566 182.676 249.562 182.52 249.554 182.376C249.546 182.136 249.49 181.908 249.386 181.692C249.282 181.468 249.13 181.284 248.93 181.14C248.73 180.996 248.47 180.924 248.15 180.924C247.814 180.924 247.546 181 247.346 181.152C247.154 181.296 247.014 181.488 246.926 181.728C246.838 181.968 246.786 182.232 246.77 182.52C246.762 182.76 246.762 183 246.77 183.24C246.786 183.528 246.838 183.792 246.926 184.032C247.014 184.272 247.154 184.468 247.346 184.62C247.546 184.764 247.814 184.836 248.15 184.836Z"/><g opacity=".8"><path stroke="#CACBCB" stroke-linecap="round" stroke-linejoin="round" stroke-width="1.5" d="M313.667 62H324.333"/><path stroke="#CACBCB" stroke-linecap="round" stroke-linejoin="round" stroke-width="1.5" d="M319 67.3334V56.6667"/><path stroke="#CACBCB" stroke-linecap="round" stroke-linejoin="round" stroke-width="1.5" d="M315 75.3334H323C329.667 75.3334 332.333 72.6667 332.333 66V58C332.333 51.3334 329.667 48.6667 323 48.6667H315C308.333 48.6667 305.667 51.3334 305.667 58V66C305.667 72.6667 308.333 75.3334 315 75.3334Z"/></g></g></g><defs><filter id="filter0_d_5_2061" width="395" height="260" x="-10" y="0" color-interpolation-filters="sRGB" filterUnits="userSpaceOnUse"><feFlood flood-opacity="0" result="BackgroundImageFix"/><feColorMatrix in="SourceAlpha" result="hardAlpha" type="matrix" values="0 0 0 0 0 0 0 0 0 0 0 0 0 0 0 0 0 0 127 0"/><feMorphology in="SourceAlpha" operator="dilate" radius="6" result="effect1_dropShadow_5_2061"/><feOffset dy="4"/><feGaussianBlur stdDeviation="12"/><feComposite in2="hardAlpha" operator="out"/><feColorMatrix type="matrix" values="0 0 0 0 0.0797273 0 0 0 0 0.0535729 0 0 0 0 0.154167 0 0 0 0.2 0"/><feBlend in2="BackgroundImageFix" mode="normal" result="effect1_dropShadow_5_2061"/><feBlend in="SourceGraphic" in2="effect1_dropShadow_5_2061" mode="normal" result="shape"/></filter><clipPath id="clip0_5_2061"><rect width="335" height="200" x="20" y="26" fill="#fff" rx="24"/></clipPath></defs></svg>