<svg xmlns="http://www.w3.org/2000/svg" width="53" height="52" fill="none" viewBox="0 0 53 52"><rect width="52" height="52" x=".5" fill="#E0E6FD" rx="24"/><path stroke="#6484F6" stroke-linecap="round" stroke-linejoin="round" stroke-width="1.5" d="M39.8333 30C39.8333 35.16 35.66 39.3333 30.5 39.3333L31.9 37"/><path stroke="#6484F6" stroke-linecap="round" stroke-linejoin="round" stroke-width="1.5" d="M13.1667 22C13.1667 16.84 17.3401 12.6667 22.5001 12.6667L21.1001 15"/><path fill="#6484F6" d="M39.8333 15.6V15.7467C39.8333 16.12 39.54 16.4134 39.1667 16.4134H27.1667C26.7933 16.4134 26.5 16.12 26.5 15.7467V15.6C26.5 13.2534 27.0867 12.6667 29.46 12.6667H36.8733C39.2467 12.6667 39.8333 13.2534 39.8333 15.6Z"/><path fill="#6484F6" d="M27.1667 17.7466C26.7933 17.7466 26.5 18.04 26.5 18.4133V19.7466V21.0666C26.5 23.4133 27.0867 24 29.46 24H36.8733C39.2467 24 39.8333 23.4133 39.8333 21.0666V19.7466V18.4133C39.8333 18.04 39.54 17.7466 39.1667 17.7466H27.1667Z"/><path fill="#6484F6" d="M26.5001 30.9333V31.08C26.5001 31.4533 26.2067 31.7467 25.8334 31.7467H13.8334C13.4601 31.7467 13.1667 31.4533 13.1667 31.08V30.9333C13.1667 28.5867 13.7534 28 16.1267 28H23.5401C25.9134 28 26.5001 28.5867 26.5001 30.9333Z"/><path fill="#6484F6" d="M13.8334 33.08C13.4601 33.08 13.1667 33.3734 13.1667 33.7467V35.08V36.4C13.1667 38.7467 13.7534 39.3334 16.1267 39.3334H23.5401C25.9134 39.3334 26.5001 38.7467 26.5001 36.4V35.08V33.7467C26.5001 33.3734 26.2067 33.08 25.8334 33.08H13.8334Z"/></svg>