<svg xmlns="http://www.w3.org/2000/svg" width="175" height="219" fill="none" viewBox="0 0 175 219"><g opacity=".4"><path stroke="#1B9B48" d="M102.21 -49.4576C78.0792 -42.9917 57.0471 -28.1277 42.897 -7.53919C28.7469 13.0493 22.4074 38.0112 25.0188 62.8566C27.6301 87.702 39.021 110.8 57.1424 127.997C75.2639 145.194 98.9268 155.36 123.875 156.667"/><path stroke="#1B9B48" d="M114.488 -3.63428C101.268 -0.0919091 89.7456 8.0514 81.9934 19.3309C74.2412 30.6105 70.7681 44.286 72.1987 57.8977C73.6294 71.5093 79.8699 84.1639 89.7978 93.5852C99.7258 103.006 112.69 108.576 126.358 109.292"/><path fill="#FFCC04" d="M171.489 141.709C174.976 139.08 175.246 133.939 172.052 130.959L137.288 98.5232C132.923 94.4499 125.788 97.3315 125.475 103.294L122.275 164.354C121.963 170.316 128.757 173.928 133.525 170.333L171.489 141.709Z"/></g></svg>