<svg width="22" height="20" viewBox="0 0 22 20" fill="none" xmlns="http://www.w3.org/2000/svg">
<path d="M19.83 6.01L13.28 0.770003C12 -0.249997 9.99996 -0.259997 8.72996 0.760003L2.17996 6.01C1.23996 6.76 0.669963 8.26 0.869963 9.44L2.12996 16.98C2.41996 18.67 3.98996 20 5.69996 20H16.3C17.99 20 19.59 18.64 19.88 16.97L21.14 9.43C21.32 8.26 20.75 6.76 19.83 6.01ZM11.75 16C11.75 16.41 11.41 16.75 11 16.75C10.59 16.75 10.25 16.41 10.25 16V13C10.25 12.59 10.59 12.25 11 12.25C11.41 12.25 11.75 12.59 11.75 13V16Z" fill="#111834"/>
</svg>
