<svg xmlns="http://www.w3.org/2000/svg" width="32" height="33" fill="none" viewBox="0 0 32 33"><path stroke="#444B59" stroke-linecap="round" stroke-miterlimit="10" stroke-width="1.5" d="M16.0268 4.38C11.6135 4.38 8.02678 7.96667 8.02678 12.38V16.2333C8.02678 17.0467 7.68012 18.2867 7.26678 18.98L5.73345 21.5267C4.78678 23.1 5.44012 24.8467 7.17345 25.4333C12.9201 27.3533 19.1201 27.3533 24.8668 25.4333C26.4801 24.9 27.1868 22.9933 26.3068 21.5267L24.7734 18.98C24.3734 18.2867 24.0268 17.0467 24.0268 16.2333V12.38C24.0268 7.98001 20.4268 4.38 16.0268 4.38Z"/><path stroke="#444B59" stroke-linecap="round" stroke-linejoin="round" stroke-miterlimit="10" stroke-width="1.5" d="M18.4934 4.76667C18.0801 4.64667 17.6534 4.55334 17.2134 4.5C15.9334 4.34 14.7067 4.43334 13.5601 4.76667C13.9467 3.78 14.9067 3.08667 16.0267 3.08667C17.1467 3.08667 18.1067 3.78 18.4934 4.76667Z"/><path stroke="#444B59" stroke-miterlimit="10" stroke-width="1.5" d="M20.0266 25.9133C20.0266 28.1133 18.2266 29.9133 16.0266 29.9133C14.9333 29.9133 13.9199 29.46 13.1999 28.74C12.4799 28.02 12.0266 27.0067 12.0266 25.9133"/><circle cx="23" cy="9" r="4.5" fill="#DB2438" stroke="#FAFAFB"/></svg>