<svg width="53" height="52" viewBox="0 0 53 52" fill="none" xmlns="http://www.w3.org/2000/svg">
<rect x="0.833252" width="52" height="52" rx="24" fill="#FDEEDC"/>
<path d="M24.5 23.3734C24.5 24.0934 24.7 24.2 25.1533 24.36L25.8333 24.6V22.3334H25.4333C24.9267 22.3334 24.5 22.8 24.5 23.3734Z" fill="#F4A84F"/>
<path d="M27.8333 29.6667H28.2333C28.7533 29.6667 29.1666 29.2 29.1666 28.6267C29.1666 27.9067 28.9666 27.8 28.5133 27.64L27.8333 27.4V29.6667Z" fill="#F4A84F"/>
<path d="M36.94 17.3066L34.2067 20.04C34.0067 20.24 33.7533 20.3333 33.5 20.3333C33.2467 20.3333 32.9933 20.24 32.7933 20.04C32.4067 19.6533 32.4067 19.0133 32.7933 18.6266L35.5267 15.8933C33.18 13.8933 30.1533 12.6666 26.8333 12.6666C19.4733 12.6666 13.5 18.64 13.5 26C13.5 33.36 19.4733 39.3333 26.8333 39.3333C34.1933 39.3333 40.1667 33.36 40.1667 26C40.1667 22.68 38.94 19.6533 36.94 17.3066ZM29.1667 25.76C30.02 26.0666 31.1667 26.68 31.1667 28.64C31.1667 30.3066 29.8467 31.68 28.2333 31.68H27.8333V32.0133C27.8333 32.56 27.38 33.0133 26.8333 33.0133C26.2867 33.0133 25.8333 32.56 25.8333 32.0133V31.68H25.7267C23.9533 31.68 22.5 30.1866 22.5 28.3466C22.5 27.7866 22.9533 27.3333 23.5 27.3333C24.0467 27.3333 24.5 27.7866 24.5 28.3333C24.5 29.0666 25.0467 29.6666 25.7267 29.6666H25.8333V26.7066L24.5 26.24C23.6467 25.9333 22.5 25.32 22.5 23.36C22.5 21.6933 23.82 20.32 25.4333 20.32H25.8333V20C25.8333 19.4533 26.2867 19 26.8333 19C27.38 19 27.8333 19.4533 27.8333 20V20.3333H27.94C29.7133 20.3333 31.1667 21.8266 31.1667 23.6666C31.1667 24.2133 30.7133 24.6666 30.1667 24.6666C29.62 24.6666 29.1667 24.2133 29.1667 23.6666C29.1667 22.9333 28.62 22.3333 27.94 22.3333H27.8333V25.2933L29.1667 25.76Z" fill="#F4A84F"/>
<path d="M41.0866 12.28C40.9799 12.04 40.7933 11.84 40.5399 11.7333C40.4199 11.6933 40.2999 11.6666 40.1666 11.6666H34.8333C34.2866 11.6666 33.8333 12.12 33.8333 12.6666C33.8333 13.2133 34.2866 13.6666 34.8333 13.6666H37.7533L35.5266 15.8933C36.0333 16.3333 36.4999 16.8 36.9399 17.3066L39.1666 15.08V18C39.1666 18.5466 39.6199 19 40.1666 19C40.7133 19 41.1666 18.5466 41.1666 18V12.6666C41.1666 12.5333 41.1399 12.4133 41.0866 12.28Z" fill="#F4A84F"/>
</svg>
