<svg width="53" height="52" viewBox="0 0 53 52" fill="none" xmlns="http://www.w3.org/2000/svg">
<rect x="0.5" width="52" height="52" rx="24" fill="#FEF4E9"/>
<path d="M32.7001 15.1466H23.7134V19.1733C23.7134 19.6933 23.2867 20.1066 22.7801 20.1066C22.2734 20.1066 21.8467 19.6933 21.8467 19.1733V15.1466H20.3001C15.0334 15.1466 13.3001 16.7199 13.1801 21.6399C13.1667 21.8799 13.2734 22.1333 13.4467 22.3066C13.6201 22.4933 13.8467 22.5866 14.1134 22.5866C15.9801 22.5866 17.5134 24.1333 17.5134 25.9999C17.5134 27.8666 15.9801 29.4133 14.1134 29.4133C13.8601 29.4133 13.6201 29.5066 13.4467 29.6933C13.2734 29.8666 13.1667 30.1199 13.1801 30.3599C13.3001 35.2799 15.0334 36.8533 20.3001 36.8533H21.8467V32.8266C21.8467 32.3066 22.2734 31.8933 22.7801 31.8933C23.2867 31.8933 23.7134 32.3066 23.7134 32.8266V36.8533H32.7001C38.1667 36.8533 39.8334 35.1866 39.8334 29.7199V22.2799C39.8334 16.8133 38.1667 15.1466 32.7001 15.1466ZM35.1267 25.8666L33.8867 27.0666C33.8334 27.1066 33.8201 27.1866 33.8334 27.2533L34.1267 28.9466C34.1801 29.2533 34.0601 29.5733 33.7934 29.7599C33.5401 29.9466 33.2067 29.9733 32.9267 29.8266L31.3934 29.0266C31.3401 28.9999 31.2601 28.9999 31.2067 29.0266L29.6734 29.8266C29.5534 29.8933 29.4201 29.9199 29.2867 29.9199C29.1134 29.9199 28.9534 29.8666 28.8067 29.7599C28.5534 29.5733 28.4201 29.2666 28.4734 28.9466L28.7667 27.2533C28.7801 27.1866 28.7534 27.1199 28.7134 27.0666L27.4734 25.8666C27.2467 25.6533 27.1667 25.3199 27.2601 25.0266C27.3534 24.7199 27.6067 24.5066 27.9267 24.4666L29.6334 24.2133C29.7001 24.1999 29.7534 24.1599 29.7934 24.1066L30.5534 22.5599C30.7001 22.2799 30.9801 22.1066 31.3001 22.1066C31.6201 22.1066 31.9001 22.2799 32.0334 22.5599L32.7934 24.1066C32.8201 24.1733 32.8734 24.2133 32.9401 24.2133L34.6467 24.4666C34.9667 24.5066 35.2201 24.7333 35.3134 25.0266C35.4334 25.3199 35.3534 25.6399 35.1267 25.8666Z" fill="#F4A84F"/>
</svg>
