<svg xmlns="http://www.w3.org/2000/svg" width="53" height="52" fill="none" viewBox="0 0 53 52"><rect width="52" height="52" x=".5" fill="#E4DEFD" rx="24"/><path fill="#7959F5" d="M41.1666 30.4933V33.4133C41.1666 36.6667 38.7933 39.7333 35.5666 40.6267C35.34 40.68 35.1 40.68 34.8866 40.6267C33.3133 40.2 31.9266 39.24 30.9533 38C29.9 36.6933 29.2866 35.08 29.2866 33.4133V30.4933C29.2866 29.9333 29.7 29.32 30.2066 29.1067L33.9133 27.5867C34.7533 27.2533 35.6866 27.2533 36.5266 27.5867L37.86 28.1333L40.2466 29.1067C40.7533 29.32 41.1666 29.9333 41.1666 30.4933Z"/><path fill="#7959F5" d="M38.4334 24.68L38.1934 26.1067L37.26 25.7334C35.94 25.2 34.5 25.2 33.1534 25.7334L29.4334 27.2667C28.1667 27.8 27.2867 29.12 27.2867 30.4934V33.4134C27.2867 35 27.7267 36.5867 28.54 38H18.74C16.9134 38 15.1934 36.5467 14.8867 34.7467L13.2067 24.68C12.9934 23.44 13.62 21.7734 14.6067 20.9867L23.38 13.9734C24.7267 12.8934 26.9134 12.8934 28.26 13.9867L37.0334 20.9867C38.0067 21.7734 38.6467 23.44 38.4334 24.68Z"/></svg>