<svg width="21" height="22" viewBox="0 0 21 22" fill="none" xmlns="http://www.w3.org/2000/svg">
<path d="M16.3734 12.55C15.9534 12.96 15.7134 13.55 15.7734 14.18C15.8634 15.26 16.8534 16.05 17.9334 16.05H19.8334V17.24C19.8334 19.31 18.1434 21 16.0734 21H4.59337C2.52337 21 0.833374 19.31 0.833374 17.24V10.51C0.833374 8.44001 2.52337 6.75 4.59337 6.75H16.0734C18.1434 6.75 19.8334 8.44001 19.8334 10.51V11.95H17.8134C17.2534 11.95 16.7434 12.17 16.3734 12.55Z" stroke="#B3B8C2" stroke-width="1.5" stroke-linecap="round" stroke-linejoin="round"/>
<path d="M0.833374 11.4113V6.84132C0.833374 5.65132 1.56337 4.59128 2.67337 4.17128L10.6134 1.17128C11.8534 0.701281 13.1834 1.62131 13.1834 2.95131V6.7513" stroke="#B3B8C2" stroke-width="1.5" stroke-linecap="round" stroke-linejoin="round"/>
</svg>
