<svg width="21" height="22" viewBox="0 0 21 22" fill="none" xmlns="http://www.w3.org/2000/svg">
<path d="M16.3733 12.55C15.9533 12.96 15.7133 13.55 15.7733 14.18C15.8633 15.26 16.8533 16.05 17.9333 16.05H19.8333V17.24C19.8333 19.31 18.1433 21 16.0733 21H4.59325C2.52325 21 0.833252 19.31 0.833252 17.24V10.51C0.833252 8.44001 2.52325 6.75 4.59325 6.75H16.0733C18.1433 6.75 19.8333 8.44001 19.8333 10.51V11.95H17.8133C17.2533 11.95 16.7433 12.17 16.3733 12.55Z" stroke="#B3B8C2" stroke-width="1.5" stroke-linecap="round" stroke-linejoin="round"/>
<path d="M0.833252 11.4113V6.84132C0.833252 5.65132 1.56325 4.59128 2.67325 4.17128L10.6133 1.17128C11.8533 0.701281 13.1833 1.62131 13.1833 2.95131V6.7513" stroke="#B3B8C2" stroke-width="1.5" stroke-linecap="round" stroke-linejoin="round"/>
</svg>
