<svg width="375" height="261" viewBox="0 0 375 261" fill="none" xmlns="http://www.w3.org/2000/svg">
<g filter="url(#filter0_d_5_4537)">
<g clip-path="url(#clip0_5_4537)">
<rect x="20" y="26" width="335" height="200.767" rx="28.0139" fill="#FFCC04"/>
<g opacity="0.1">
<g opacity="0.3">
<path d="M158.738 96.313C163.871 105.203 165.663 115.633 163.792 125.726C161.922 135.82 156.511 144.915 148.533 151.375C140.555 157.835 130.534 161.237 120.273 160.968C110.011 160.699 100.182 156.778 92.5529 149.909" stroke="#303131" stroke-width="0.724589"/>
<path d="M141.795 106.095C144.599 110.951 145.578 116.648 144.556 122.161C143.534 127.674 140.579 132.642 136.221 136.171C131.864 139.699 126.39 141.557 120.785 141.411C115.18 141.264 109.811 139.122 105.644 135.37" stroke="#303131" stroke-width="0.724589"/>
<path d="M83.284 131.727C83.0651 130.166 84.308 128.786 85.8833 128.84L105.479 129.519C107.632 129.594 108.718 132.15 107.276 133.751L90.4037 152.489C88.962 154.09 86.3068 153.278 86.0075 151.145L83.284 131.727Z" stroke="#303131" stroke-width="0.724589"/>
</g>
<g opacity="0.3">
<path d="M221.523 183.776C216.391 174.886 214.598 164.456 216.469 154.362C218.34 144.269 223.751 135.174 231.728 128.714C239.706 122.254 249.727 118.852 259.989 119.121C270.251 119.389 280.08 123.311 287.708 130.18" stroke="#303131" stroke-width="0.724589"/>
<path d="M238.466 173.994C235.662 169.138 234.684 163.441 235.705 157.928C236.727 152.414 239.683 147.447 244.04 143.918C248.398 140.389 253.871 138.531 259.477 138.678C265.082 138.825 270.451 140.967 274.618 144.719" stroke="#303131" stroke-width="0.724589"/>
<path d="M296.977 148.361C297.196 149.922 295.953 151.302 294.378 151.248L274.782 150.569C272.629 150.494 271.544 147.938 272.985 146.337L289.858 127.599C291.299 125.998 293.955 126.81 294.254 128.943L296.977 148.361Z" stroke="#303131" stroke-width="0.724589"/>
</g>
<g opacity="0.8">
<path d="M360.132 135.032C350.114 125.015 336.851 118.9 322.727 117.789C308.604 116.677 294.547 120.641 283.086 128.969C271.624 137.296 263.51 149.439 260.203 163.215C256.896 176.991 258.612 191.495 265.044 204.118" stroke="#1B9B48"/>
<path d="M341.04 154.124C335.568 148.652 328.323 145.313 320.609 144.705C312.895 144.098 305.217 146.264 298.956 150.812C292.696 155.361 288.264 161.994 286.457 169.518C284.651 177.043 285.588 184.965 289.101 191.86" stroke="#1B9B48"/>
<path d="M285.774 223.427C288.063 224.398 290.674 223.068 291.234 220.646L297.328 194.281C298.093 190.97 294.643 188.273 291.615 189.816L260.608 205.614C257.581 207.157 257.734 211.534 260.862 212.861L285.774 223.427Z" fill="#141D3E"/>
</g>
<g opacity="0.8">
<path d="M109.132 8.03188C119.15 18.0496 125.264 31.313 126.376 45.4364C127.487 59.5599 123.523 73.6165 115.196 85.078C106.868 96.5394 94.7248 104.653 80.9491 107.961C67.1734 111.268 52.6697 109.551 40.0467 103.12" stroke="#303131"/>
<path d="M90.04 27.1238C95.5119 32.5956 98.8517 39.8403 99.4589 47.5548C100.066 55.2693 97.9006 62.9473 93.3521 69.2078C88.8036 75.4682 82.1706 79.9003 74.646 81.7068C67.1215 83.5132 59.1993 82.5756 52.3044 79.0624" stroke="#303131"/>
<path d="M21.1974 82.1943C20.3479 80.1916 21.5118 77.9074 23.6312 77.4175L49.9962 71.3231C52.8933 70.6534 55.2529 73.6727 53.903 76.3221L38.1044 107.329C36.7545 109.978 32.9248 109.844 31.7638 107.106L21.1974 82.1943Z" stroke="#303131"/>
</g>
</g>
<ellipse cx="36.925" cy="18.9962" rx="372.936" ry="253.293" fill="white" fill-opacity="0.2"/>
<ellipse cx="-48.284" cy="18.9962" rx="372.936" ry="253.293" fill="white" fill-opacity="0.2"/>
<ellipse cx="-136.411" cy="18.9962" rx="372.352" ry="253.293" fill="white" fill-opacity="0.2"/>
<ellipse cx="-228.04" cy="18.9962" rx="372.936" ry="253.293" fill="white" fill-opacity="0.2"/>
<path d="M48.9824 64.0228C48.1984 64.0228 47.5217 63.8828 46.9524 63.6028C46.3924 63.3228 45.9584 62.8981 45.6504 62.3288C45.3517 61.7501 45.2024 61.0081 45.2024 60.1028V54.4188C45.2024 54.3161 45.2304 54.2368 45.2864 54.1808C45.3424 54.1155 45.4217 54.0828 45.5244 54.0828H46.2384C46.341 54.0828 46.4204 54.1155 46.4764 54.1808C46.5417 54.2368 46.5744 54.3161 46.5744 54.4188V60.1308C46.5744 61.0455 46.789 61.7221 47.2184 62.1608C47.6477 62.5995 48.2357 62.8188 48.9824 62.8188C49.7197 62.8188 50.303 62.5995 50.7324 62.1608C51.171 61.7221 51.3904 61.0455 51.3904 60.1308V54.4188C51.3904 54.3161 51.4184 54.2368 51.4744 54.1808C51.5397 54.1155 51.619 54.0828 51.7124 54.0828H52.4404C52.5337 54.0828 52.6084 54.1155 52.6644 54.1808C52.7297 54.2368 52.7624 54.3161 52.7624 54.4188V60.1028C52.7624 61.0081 52.6084 61.7501 52.3004 62.3288C52.0017 62.8981 51.5724 63.3228 51.0124 63.6028C50.4524 63.8828 49.7757 64.0228 48.9824 64.0228ZM58.2528 64.0228C57.4408 64.0228 56.7594 63.9015 56.2088 63.6588C55.6581 63.4068 55.2334 63.0848 54.9348 62.6928C54.6454 62.2915 54.4914 61.8668 54.4728 61.4188C54.4728 61.3441 54.5008 61.2788 54.5568 61.2228C54.6221 61.1575 54.6968 61.1248 54.7808 61.1248H55.4948C55.6068 61.1248 55.6908 61.1528 55.7468 61.2088C55.8028 61.2648 55.8401 61.3301 55.8588 61.4048C55.9054 61.6288 56.0174 61.8528 56.1948 62.0768C56.3814 62.2915 56.6381 62.4735 56.9648 62.6228C57.3008 62.7628 57.7301 62.8328 58.2528 62.8328C59.0554 62.8328 59.6434 62.6928 60.0168 62.4128C60.3994 62.1235 60.5908 61.7408 60.5908 61.2648C60.5908 60.9381 60.4881 60.6768 60.2828 60.4808C60.0868 60.2755 59.7834 60.0935 59.3728 59.9348C58.9621 59.7761 58.4301 59.6035 57.7768 59.4168C57.0954 59.2208 56.5308 59.0061 56.0828 58.7728C55.6348 58.5395 55.2988 58.2501 55.0748 57.9048C54.8601 57.5595 54.7528 57.1208 54.7528 56.5888C54.7528 56.0848 54.8881 55.6368 55.1588 55.2448C55.4294 54.8435 55.8168 54.5261 56.3208 54.2928C56.8341 54.0595 57.4548 53.9428 58.1828 53.9428C58.7614 53.9428 59.2654 54.0221 59.6948 54.1808C60.1334 54.3301 60.4974 54.5355 60.7868 54.7968C61.0761 55.0488 61.2954 55.3241 61.4448 55.6228C61.5941 55.9121 61.6734 56.1968 61.6828 56.4768C61.6828 56.5421 61.6594 56.6075 61.6128 56.6728C61.5661 56.7288 61.4914 56.7568 61.3888 56.7568H60.6468C60.5814 56.7568 60.5114 56.7381 60.4368 56.7008C60.3714 56.6635 60.3201 56.5935 60.2828 56.4908C60.2268 56.1081 60.0121 55.7861 59.6388 55.5248C59.2654 55.2635 58.7801 55.1328 58.1828 55.1328C57.5761 55.1328 57.0814 55.2495 56.6988 55.4828C56.3254 55.7161 56.1388 56.0801 56.1388 56.5748C56.1388 56.8921 56.2274 57.1581 56.4048 57.3728C56.5821 57.5781 56.8621 57.7601 57.2448 57.9188C57.6274 58.0775 58.1268 58.2455 58.7428 58.4228C59.4894 58.6281 60.1008 58.8475 60.5768 59.0808C61.0528 59.3048 61.4028 59.5895 61.6268 59.9348C61.8601 60.2708 61.9768 60.7048 61.9768 61.2368C61.9768 61.8248 61.8228 62.3288 61.5148 62.7488C61.2068 63.1595 60.7728 63.4768 60.2128 63.7008C59.6621 63.9155 59.0088 64.0228 58.2528 64.0228ZM64.1338 63.8828C64.0311 63.8828 63.9518 63.8548 63.8958 63.7988C63.8398 63.7335 63.8118 63.6541 63.8118 63.5608V54.4188C63.8118 54.3161 63.8398 54.2368 63.8958 54.1808C63.9518 54.1155 64.0311 54.0828 64.1338 54.0828H67.3118C68.2731 54.0828 69.0478 54.2275 69.6358 54.5168C70.2238 54.8061 70.6531 55.2355 70.9238 55.8048C71.1944 56.3648 71.3344 57.0555 71.3438 57.8768C71.3531 58.2968 71.3578 58.6655 71.3578 58.9828C71.3578 59.3001 71.3531 59.6641 71.3438 60.0748C71.3251 60.9335 71.1804 61.6475 70.9098 62.2168C70.6484 62.7768 70.2284 63.1968 69.6498 63.4768C69.0804 63.7475 68.3244 63.8828 67.3818 63.8828H64.1338ZM65.1838 62.6928H67.3118C67.9558 62.6928 68.4691 62.6041 68.8518 62.4268C69.2344 62.2495 69.5098 61.9648 69.6778 61.5728C69.8551 61.1808 69.9484 60.6628 69.9578 60.0188C69.9764 59.7388 69.9857 59.4961 69.9857 59.2908C69.9857 59.0761 69.9857 58.8661 69.9857 58.6608C69.9857 58.4461 69.9764 58.2035 69.9578 57.9328C69.9391 57.0275 69.7244 56.3601 69.3138 55.9308C68.9031 55.4921 68.2124 55.2728 67.2418 55.2728H65.1838V62.6928ZM77.2177 63.8828C77.1151 63.8828 77.0357 63.8548 76.9797 63.7988C76.9237 63.7335 76.8957 63.6541 76.8957 63.5608V54.4188C76.8957 54.3161 76.9237 54.2368 76.9797 54.1808C77.0357 54.1155 77.1151 54.0828 77.2177 54.0828H81.0537C81.7537 54.0828 82.3231 54.1995 82.7617 54.4328C83.2097 54.6568 83.5364 54.9648 83.7417 55.3568C83.9564 55.7488 84.0637 56.1875 84.0637 56.6728C84.0637 57.0555 83.9984 57.3868 83.8677 57.6668C83.7464 57.9375 83.5924 58.1615 83.4057 58.3388C83.2191 58.5068 83.0371 58.6375 82.8597 58.7308C83.2237 58.9081 83.5457 59.1975 83.8257 59.5988C84.1151 60.0001 84.2597 60.4855 84.2597 61.0548C84.2597 61.5681 84.1431 62.0395 83.9097 62.4688C83.6764 62.8981 83.3264 63.2435 82.8597 63.5048C82.4024 63.7568 81.8331 63.8828 81.1517 63.8828H77.2177ZM78.2677 62.7488H80.9697C81.5764 62.7488 82.0431 62.5855 82.3697 62.2588C82.6964 61.9321 82.8597 61.5308 82.8597 61.0548C82.8597 60.5601 82.6964 60.1541 82.3697 59.8368C82.0431 59.5101 81.5764 59.3468 80.9697 59.3468H78.2677V62.7488ZM78.2677 58.2268H80.8437C81.4411 58.2268 81.8937 58.0915 82.2017 57.8208C82.5097 57.5408 82.6637 57.1628 82.6637 56.6868C82.6637 56.2108 82.5097 55.8468 82.2017 55.5948C81.8937 55.3428 81.4411 55.2168 80.8437 55.2168H78.2677V58.2268ZM88.0953 64.0228C87.6286 64.0228 87.204 63.9295 86.8213 63.7428C86.4386 63.5561 86.1306 63.3041 85.8973 62.9868C85.664 62.6695 85.5473 62.3101 85.5473 61.9088C85.5473 61.2648 85.8086 60.7515 86.3313 60.3688C86.854 59.9861 87.5353 59.7341 88.3753 59.6128L90.4613 59.3188V58.9128C90.4613 58.4648 90.3306 58.1148 90.0693 57.8628C89.8173 57.6108 89.402 57.4848 88.8233 57.4848C88.4033 57.4848 88.0626 57.5688 87.8013 57.7368C87.5493 57.9048 87.372 58.1195 87.2693 58.3808C87.2133 58.5208 87.1153 58.5908 86.9753 58.5908H86.3453C86.2426 58.5908 86.1633 58.5628 86.1073 58.5068C86.0606 58.4415 86.0373 58.3668 86.0373 58.2828C86.0373 58.1428 86.0886 57.9701 86.1913 57.7648C86.3033 57.5595 86.4713 57.3588 86.6953 57.1628C86.9193 56.9668 87.204 56.8035 87.5493 56.6728C87.904 56.5328 88.3333 56.4628 88.8373 56.4628C89.3973 56.4628 89.8686 56.5375 90.2513 56.6868C90.634 56.8268 90.9326 57.0181 91.1473 57.2608C91.3713 57.5035 91.53 57.7788 91.6233 58.0868C91.726 58.3948 91.7773 58.7075 91.7773 59.0248V63.5608C91.7773 63.6541 91.7446 63.7335 91.6793 63.7988C91.6233 63.8548 91.5486 63.8828 91.4553 63.8828H90.8113C90.7086 63.8828 90.6293 63.8548 90.5733 63.7988C90.5173 63.7335 90.4893 63.6541 90.4893 63.5608V62.9588C90.368 63.1268 90.2046 63.2948 89.9993 63.4628C89.794 63.6215 89.5373 63.7568 89.2293 63.8688C88.9213 63.9715 88.5433 64.0228 88.0953 64.0228ZM88.3893 62.9728C88.772 62.9728 89.122 62.8935 89.4393 62.7348C89.7566 62.5668 90.004 62.3101 90.1813 61.9648C90.368 61.6195 90.4613 61.1855 90.4613 60.6628V60.2708L88.8373 60.5088C88.1746 60.6021 87.6753 60.7608 87.3393 60.9848C87.0033 61.1995 86.8353 61.4748 86.8353 61.8108C86.8353 62.0721 86.91 62.2915 87.0593 62.4688C87.218 62.6368 87.414 62.7628 87.6473 62.8468C87.89 62.9308 88.1373 62.9728 88.3893 62.9728ZM94.1259 63.8828C94.0326 63.8828 93.9532 63.8548 93.8879 63.7988C93.8319 63.7335 93.8039 63.6541 93.8039 63.5608V54.2648C93.8039 54.1715 93.8319 54.0968 93.8879 54.0408C93.9532 53.9755 94.0326 53.9428 94.1259 53.9428H94.7839C94.8866 53.9428 94.9659 53.9755 95.0219 54.0408C95.0779 54.0968 95.1059 54.1715 95.1059 54.2648V63.5608C95.1059 63.6541 95.0779 63.7335 95.0219 63.7988C94.9659 63.8548 94.8866 63.8828 94.7839 63.8828H94.1259ZM99.2242 64.0228C98.7575 64.0228 98.3329 63.9295 97.9502 63.7428C97.5675 63.5561 97.2595 63.3041 97.0262 62.9868C96.7929 62.6695 96.6762 62.3101 96.6762 61.9088C96.6762 61.2648 96.9375 60.7515 97.4602 60.3688C97.9829 59.9861 98.6642 59.7341 99.5042 59.6128L101.59 59.3188V58.9128C101.59 58.4648 101.46 58.1148 101.198 57.8628C100.946 57.6108 100.531 57.4848 99.9522 57.4848C99.5322 57.4848 99.1915 57.5688 98.9302 57.7368C98.6782 57.9048 98.5009 58.1195 98.3982 58.3808C98.3422 58.5208 98.2442 58.5908 98.1042 58.5908H97.4742C97.3715 58.5908 97.2922 58.5628 97.2362 58.5068C97.1895 58.4415 97.1662 58.3668 97.1662 58.2828C97.1662 58.1428 97.2175 57.9701 97.3202 57.7648C97.4322 57.5595 97.6002 57.3588 97.8242 57.1628C98.0482 56.9668 98.3329 56.8035 98.6782 56.6728C99.0329 56.5328 99.4622 56.4628 99.9662 56.4628C100.526 56.4628 100.998 56.5375 101.38 56.6868C101.763 56.8268 102.062 57.0181 102.276 57.2608C102.5 57.5035 102.659 57.7788 102.752 58.0868C102.855 58.3948 102.906 58.7075 102.906 59.0248V63.5608C102.906 63.6541 102.874 63.7335 102.808 63.7988C102.752 63.8548 102.678 63.8828 102.584 63.8828H101.94C101.838 63.8828 101.758 63.8548 101.702 63.7988C101.646 63.7335 101.618 63.6541 101.618 63.5608V62.9588C101.497 63.1268 101.334 63.2948 101.128 63.4628C100.923 63.6215 100.666 63.7568 100.358 63.8688C100.05 63.9715 99.6722 64.0228 99.2242 64.0228ZM99.5182 62.9728C99.9009 62.9728 100.251 62.8935 100.568 62.7348C100.886 62.5668 101.133 62.3101 101.31 61.9648C101.497 61.6195 101.59 61.1855 101.59 60.6628V60.2708L99.9662 60.5088C99.3035 60.6021 98.8042 60.7608 98.4682 60.9848C98.1322 61.1995 97.9642 61.4748 97.9642 61.8108C97.9642 62.0721 98.0389 62.2915 98.1882 62.4688C98.3469 62.6368 98.5429 62.7628 98.7762 62.8468C99.0189 62.9308 99.2662 62.9728 99.5182 62.9728ZM105.241 63.8828C105.147 63.8828 105.068 63.8548 105.003 63.7988C104.947 63.7335 104.919 63.6541 104.919 63.5608V56.9248C104.919 56.8315 104.947 56.7568 105.003 56.7008C105.068 56.6355 105.147 56.6028 105.241 56.6028H105.899C105.992 56.6028 106.067 56.6355 106.123 56.7008C106.188 56.7568 106.221 56.8315 106.221 56.9248V57.5408C106.463 57.2235 106.767 56.9668 107.131 56.7708C107.504 56.5655 107.98 56.4628 108.559 56.4628C109.165 56.4628 109.679 56.5981 110.099 56.8688C110.528 57.1301 110.85 57.4988 111.065 57.9748C111.279 58.4415 111.387 58.9875 111.387 59.6128V63.5608C111.387 63.6541 111.359 63.7335 111.303 63.7988C111.247 63.8548 111.172 63.8828 111.079 63.8828H110.379C110.285 63.8828 110.206 63.8548 110.141 63.7988C110.085 63.7335 110.057 63.6541 110.057 63.5608V59.6828C110.057 59.0295 109.898 58.5208 109.581 58.1568C109.263 57.7835 108.797 57.5968 108.181 57.5968C107.602 57.5968 107.135 57.7835 106.781 58.1568C106.435 58.5208 106.263 59.0295 106.263 59.6828V63.5608C106.263 63.6541 106.23 63.7335 106.165 63.7988C106.109 63.8548 106.034 63.8828 105.941 63.8828H105.241ZM116.349 64.0228C115.686 64.0228 115.112 63.8968 114.627 63.6448C114.151 63.3835 113.782 63.0148 113.521 62.5388C113.26 62.0535 113.12 61.4748 113.101 60.8028C113.092 60.6628 113.087 60.4761 113.087 60.2428C113.087 60.0095 113.092 59.8228 113.101 59.6828C113.12 59.0108 113.26 58.4368 113.521 57.9608C113.782 57.4755 114.151 57.1068 114.627 56.8548C115.112 56.5935 115.686 56.4628 116.349 56.4628C116.89 56.4628 117.352 56.5375 117.735 56.6868C118.127 56.8361 118.449 57.0275 118.701 57.2608C118.953 57.4941 119.14 57.7461 119.261 58.0168C119.392 58.2875 119.462 58.5441 119.471 58.7868C119.48 58.8801 119.452 58.9548 119.387 59.0108C119.322 59.0668 119.242 59.0948 119.149 59.0948H118.477C118.384 59.0948 118.314 59.0761 118.267 59.0388C118.22 58.9921 118.174 58.9175 118.127 58.8148C117.959 58.3575 117.73 58.0355 117.441 57.8488C117.152 57.6621 116.792 57.5688 116.363 57.5688C115.803 57.5688 115.346 57.7415 114.991 58.0868C114.646 58.4321 114.459 58.9875 114.431 59.7528C114.422 60.0888 114.422 60.4155 114.431 60.7328C114.459 61.5075 114.646 62.0675 114.991 62.4128C115.346 62.7488 115.803 62.9168 116.363 62.9168C116.792 62.9168 117.152 62.8235 117.441 62.6368C117.73 62.4501 117.959 62.1281 118.127 61.6708C118.174 61.5681 118.22 61.4981 118.267 61.4608C118.314 61.4141 118.384 61.3908 118.477 61.3908H119.149C119.242 61.3908 119.322 61.4188 119.387 61.4748C119.452 61.5308 119.48 61.6055 119.471 61.6988C119.462 61.8948 119.42 62.0955 119.345 62.3008C119.27 62.5061 119.149 62.7161 118.981 62.9308C118.822 63.1361 118.622 63.3228 118.379 63.4908C118.136 63.6495 117.842 63.7801 117.497 63.8828C117.161 63.9761 116.778 64.0228 116.349 64.0228ZM124.032 64.0228C123.07 64.0228 122.305 63.7288 121.736 63.1408C121.166 62.5435 120.854 61.7315 120.798 60.7048C120.788 60.5835 120.784 60.4295 120.784 60.2428C120.784 60.0468 120.788 59.8881 120.798 59.7668C120.835 59.1041 120.989 58.5255 121.26 58.0308C121.53 57.5268 121.899 57.1395 122.366 56.8688C122.842 56.5981 123.397 56.4628 124.032 56.4628C124.741 56.4628 125.334 56.6121 125.81 56.9108C126.295 57.2095 126.664 57.6341 126.916 58.1848C127.168 58.7355 127.294 59.3795 127.294 60.1168V60.3548C127.294 60.4575 127.261 60.5368 127.196 60.5928C127.14 60.6488 127.065 60.6768 126.972 60.6768L122.128 60.6768C122.128 60.6861 122.128 60.7048 122.128 60.7328C122.128 60.7608 122.128 60.7841 122.128 60.8028C122.146 61.1855 122.23 61.5448 122.38 61.8808C122.529 62.2075 122.744 62.4735 123.024 62.6788C123.304 62.8841 123.64 62.9868 124.032 62.9868C124.368 62.9868 124.648 62.9355 124.872 62.8328C125.096 62.7301 125.278 62.6181 125.418 62.4968C125.558 62.3661 125.651 62.2681 125.698 62.2028C125.782 62.0815 125.847 62.0115 125.894 61.9928C125.94 61.9648 126.015 61.9508 126.118 61.9508H126.79C126.883 61.9508 126.958 61.9788 127.014 62.0348C127.079 62.0815 127.107 62.1515 127.098 62.2448C127.088 62.3848 127.014 62.5575 126.874 62.7628C126.734 62.9588 126.533 63.1548 126.272 63.3508C126.01 63.5468 125.693 63.7101 125.32 63.8408C124.946 63.9621 124.517 64.0228 124.032 64.0228ZM122.128 59.7108L125.964 59.7108V59.6688C125.964 59.2488 125.884 58.8755 125.726 58.5488C125.576 58.2221 125.357 57.9655 125.068 57.7788C124.778 57.5828 124.433 57.4848 124.032 57.4848C123.63 57.4848 123.285 57.5828 122.996 57.7788C122.716 57.9655 122.501 58.2221 122.352 58.5488C122.202 58.8755 122.128 59.2488 122.128 59.6688V59.7108Z" fill="#515151"/>
<path d="M58.5663 121.443C57.0329 121.443 55.5663 121.269 54.1663 120.923C52.7796 120.576 51.5463 120.056 50.4663 119.363C49.3996 118.656 48.5529 117.756 47.9263 116.663C47.3129 115.556 47.0063 114.256 47.0063 112.763H51.6463C51.6463 113.803 51.9263 114.643 52.4863 115.283C53.0463 115.923 53.8596 116.389 54.9263 116.683C55.9929 116.976 57.2863 117.123 58.8063 117.123C60.0196 117.123 61.0129 116.976 61.7863 116.683C62.5596 116.389 63.1263 115.996 63.4863 115.503C63.8596 114.996 64.0463 114.443 64.0463 113.843C64.0463 113.083 63.7929 112.423 63.2863 111.863C62.7929 111.303 62.0729 110.856 61.1263 110.523L58.2863 109.443V105.363L63.4063 107.163C65.4063 107.856 66.8996 108.736 67.8863 109.803C68.8729 110.869 69.3663 112.256 69.3663 113.963C69.3663 115.216 68.9796 116.416 68.2063 117.563C67.4463 118.696 66.2663 119.629 64.6663 120.363C63.0796 121.083 61.0463 121.443 58.5663 121.443ZM56.5263 124.923V91.4028H59.8863V124.923H56.5263ZM57.4463 109.523L54.5263 108.523C52.2863 107.763 50.5596 106.856 49.3463 105.803C48.1329 104.749 47.5263 103.309 47.5263 101.483C47.5263 99.3761 48.4196 97.6695 50.2063 96.3628C52.0063 95.0561 54.6196 94.4028 58.0463 94.4028C61.2329 94.4028 63.6529 95.0961 65.3063 96.4828C66.9729 97.8561 68.0063 99.7228 68.4063 102.083H63.7263C63.5263 101.056 62.9396 100.196 61.9663 99.5028C61.0063 98.7961 59.6729 98.4428 57.9663 98.4428C56.2063 98.4428 54.8796 98.7428 53.9863 99.3428C53.0929 99.9428 52.6463 100.709 52.6463 101.643C52.6463 102.336 52.8596 102.903 53.2863 103.343C53.7263 103.769 54.4063 104.149 55.3263 104.483L57.4463 105.363V109.523ZM86.1444 94.6428H90.7044V111.083H95.2244V115.123H90.7044V120.883H86.0244V115.123H72.8644V111.563L86.1444 94.6428ZM86.2644 101.643L78.4644 111.563H86.2644V101.643ZM100.213 126.323L96.7334 124.563C97.6134 124.123 98.3934 123.616 99.0734 123.043C99.7534 122.469 100.2 121.816 100.413 121.083C99.6801 120.936 99.0468 120.629 98.5134 120.163C97.9934 119.696 97.7334 119.083 97.7334 118.323C97.7334 117.523 98.0401 116.849 98.6534 116.303C99.2668 115.756 100.04 115.483 100.973 115.483C102.16 115.483 103.087 115.896 103.753 116.723C104.433 117.549 104.773 118.529 104.773 119.663C104.773 120.956 104.367 122.209 103.553 123.423C102.74 124.649 101.627 125.616 100.213 126.323ZM108.291 120.883V116.443C108.291 114.989 108.511 113.756 108.951 112.743C109.391 111.729 110.044 110.876 110.911 110.183C111.791 109.476 112.891 108.869 114.211 108.363L119.531 106.323C120.691 105.856 121.544 105.283 122.091 104.603C122.651 103.923 122.931 103.083 122.931 102.083C122.931 101.083 122.564 100.243 121.831 99.5628C121.111 98.8695 120.077 98.5228 118.731 98.5228C117.437 98.5228 116.351 98.8495 115.471 99.5028C114.604 100.143 114.104 101.083 113.971 102.323H108.731C108.771 100.549 109.231 99.0761 110.111 97.9028C110.991 96.7295 112.171 95.8561 113.651 95.2828C115.131 94.6961 116.797 94.4028 118.651 94.4028C120.397 94.4028 121.977 94.7361 123.391 95.4028C124.804 96.0561 125.924 96.9761 126.751 98.1628C127.591 99.3361 128.011 100.709 128.011 102.283C128.011 103.616 127.764 104.789 127.271 105.803C126.791 106.816 126.057 107.703 125.071 108.463C124.084 109.223 122.837 109.896 121.331 110.483L115.971 112.563C114.931 112.963 114.177 113.409 113.711 113.903C113.244 114.383 113.011 115.016 113.011 115.803V116.563H127.851V120.883H108.291ZM141.989 121.443C140.203 121.443 138.596 121.096 137.169 120.403C135.743 119.696 134.609 118.729 133.769 117.503C132.929 116.263 132.509 114.829 132.509 113.203H137.429C137.483 114.403 137.916 115.356 138.729 116.063C139.556 116.769 140.589 117.123 141.829 117.123C143.283 117.123 144.456 116.709 145.349 115.883C146.243 115.043 146.889 113.869 147.289 112.363C147.703 110.856 147.909 109.096 147.909 107.083C147.909 106.683 147.896 106.296 147.869 105.923C147.856 105.536 147.816 105.136 147.749 104.723C147.496 106.189 147.016 107.376 146.309 108.283C145.603 109.176 144.743 109.829 143.729 110.243C142.729 110.643 141.643 110.843 140.469 110.843C138.856 110.843 137.429 110.496 136.189 109.803C134.963 109.096 133.996 108.129 133.289 106.903C132.583 105.663 132.229 104.243 132.229 102.643C132.229 100.989 132.623 99.5428 133.409 98.3028C134.209 97.0628 135.309 96.1028 136.709 95.4228C138.123 94.7428 139.749 94.4028 141.589 94.4028C143.136 94.4028 144.576 94.7161 145.909 95.3428C147.256 95.9695 148.429 96.8628 149.429 98.0228C150.429 99.1695 151.209 100.543 151.769 102.143C152.343 103.743 152.629 105.523 152.629 107.483C152.629 110.323 152.236 112.789 151.449 114.883C150.663 116.976 149.483 118.596 147.909 119.743C146.336 120.876 144.363 121.443 141.989 121.443ZM141.629 106.963C142.443 106.963 143.189 106.789 143.869 106.443C144.563 106.096 145.116 105.616 145.529 105.003C145.943 104.389 146.149 103.683 146.149 102.883C146.149 101.603 145.696 100.589 144.789 99.8428C143.896 99.0961 142.829 98.7228 141.589 98.7228C140.349 98.7228 139.289 99.0961 138.409 99.8428C137.543 100.589 137.109 101.603 137.109 102.883C137.109 104.163 137.549 105.163 138.429 105.883C139.309 106.603 140.376 106.963 141.629 106.963ZM166.403 121.443C164.537 121.443 162.89 121.123 161.463 120.483C160.037 119.829 158.91 118.883 158.083 117.643C157.27 116.403 156.843 114.896 156.803 113.123H161.603C161.603 114.456 162.063 115.456 162.983 116.123C163.903 116.789 165.043 117.123 166.403 117.123C167.857 117.123 169.043 116.656 169.963 115.723C170.897 114.776 171.363 113.616 171.363 112.243C171.363 109.576 169.577 108.243 166.003 108.243H158.083L159.283 94.9228H174.843V99.2428H163.083L164.003 97.8828L163.243 105.603L162.843 105.163C163.483 105.016 164.243 104.909 165.123 104.843C166.003 104.763 166.763 104.723 167.403 104.723C170.083 104.723 172.217 105.376 173.803 106.683C175.403 107.976 176.203 109.829 176.203 112.243C176.203 113.963 175.797 115.523 174.983 116.923C174.17 118.309 173.03 119.409 171.563 120.223C170.097 121.036 168.377 121.443 166.403 121.443ZM178.765 118.123C178.765 117.216 179.071 116.456 179.685 115.843C180.298 115.229 181.085 114.923 182.045 114.923C183.005 114.923 183.805 115.229 184.445 115.843C185.085 116.456 185.405 117.216 185.405 118.123C185.405 119.016 185.085 119.763 184.445 120.363C183.805 120.949 183.005 121.243 182.045 121.243C181.085 121.243 180.298 120.943 179.685 120.343C179.071 119.743 178.765 119.003 178.765 118.123ZM199.078 121.443C196.945 121.443 195.065 120.949 193.438 119.963C191.825 118.976 190.558 117.483 189.638 115.483C188.732 113.483 188.278 110.963 188.278 107.923C188.278 104.869 188.732 102.343 189.638 100.343C190.558 98.3428 191.825 96.8561 193.438 95.8828C195.065 94.8961 196.945 94.4028 199.078 94.4028C201.185 94.4028 203.045 94.8961 204.658 95.8828C206.285 96.8561 207.552 98.3428 208.458 100.343C209.378 102.343 209.838 104.869 209.838 107.923C209.838 110.963 209.378 113.483 208.458 115.483C207.552 117.483 206.285 118.976 204.658 119.963C203.045 120.949 201.185 121.443 199.078 121.443ZM199.078 117.123C200.945 117.123 202.392 116.336 203.418 114.763C204.445 113.176 204.958 110.896 204.958 107.923C204.958 104.949 204.445 102.669 203.418 101.083C202.392 99.4828 200.945 98.6828 199.078 98.6828C197.198 98.6828 195.738 99.4828 194.698 101.083C193.672 102.669 193.158 104.949 193.158 107.923C193.158 110.896 193.672 113.176 194.698 114.763C195.738 116.336 197.198 117.123 199.078 117.123ZM224.231 121.443C222.858 121.443 221.531 121.256 220.251 120.883C218.971 120.509 217.824 119.956 216.811 119.223C215.798 118.489 214.991 117.583 214.391 116.503C213.804 115.409 213.511 114.149 213.511 112.723H218.471C218.524 113.629 218.798 114.416 219.291 115.083C219.784 115.736 220.451 116.243 221.291 116.603C222.144 116.949 223.124 117.123 224.231 117.123C225.858 117.123 227.131 116.749 228.051 116.003C228.971 115.256 229.431 114.309 229.431 113.163C229.431 112.416 229.244 111.776 228.871 111.243C228.498 110.696 227.924 110.283 227.151 110.003C226.378 109.709 225.391 109.563 224.191 109.563H220.751V105.843H223.671C225.191 105.843 226.384 105.516 227.251 104.863C228.118 104.209 228.551 103.323 228.551 102.203C228.551 101.203 228.178 100.369 227.431 99.7028C226.684 99.0228 225.564 98.6828 224.071 98.6828C222.858 98.6828 221.771 98.9295 220.811 99.4228C219.864 99.9161 219.258 100.776 218.991 102.003H214.031C214.218 100.229 214.751 98.7828 215.631 97.6628C216.524 96.5428 217.678 95.7228 219.091 95.2028C220.504 94.6695 222.098 94.4028 223.871 94.4028C225.751 94.4028 227.424 94.7095 228.891 95.3228C230.358 95.9361 231.511 96.7895 232.351 97.8828C233.204 98.9628 233.631 100.216 233.631 101.643C233.631 102.963 233.271 104.116 232.551 105.103C231.831 106.076 230.764 106.803 229.351 107.283C230.924 107.816 232.184 108.609 233.131 109.663C234.078 110.716 234.551 112.029 234.551 113.603C234.551 115.136 234.118 116.496 233.251 117.683C232.398 118.856 231.198 119.776 229.651 120.443C228.104 121.109 226.298 121.443 224.231 121.443Z" fill="#303131"/>
<path d="M80.7848 186.383C80.6648 186.383 80.5688 186.351 80.4968 186.287C80.4328 186.215 80.3888 186.127 80.3648 186.023L78.9368 178.331C78.9368 178.307 78.9328 178.287 78.9248 178.271C78.9248 178.255 78.9248 178.243 78.9248 178.235C78.9248 178.163 78.9488 178.103 78.9968 178.055C79.0528 178.007 79.1128 177.983 79.1768 177.983H80.2327C80.4328 177.983 80.5448 178.063 80.5688 178.223L81.5648 183.659L82.6448 180.143C82.6688 180.079 82.7088 180.015 82.7648 179.951C82.8288 179.879 82.9208 179.843 83.0408 179.843H83.6888C83.8168 179.843 83.9088 179.879 83.9648 179.951C84.0208 180.015 84.0568 180.079 84.0728 180.143L85.1648 183.647L86.1608 178.223C86.1848 178.063 86.2968 177.983 86.4968 177.983H87.5528C87.6168 177.983 87.6728 178.007 87.7208 178.055C87.7688 178.103 87.7928 178.163 87.7928 178.235C87.7928 178.243 87.7928 178.255 87.7928 178.271C87.7928 178.287 87.7888 178.307 87.7808 178.331L86.3528 186.023C86.3368 186.127 86.2928 186.215 86.2208 186.287C86.1488 186.351 86.0528 186.383 85.9328 186.383H85.1288C85.0088 186.383 84.9128 186.351 84.8408 186.287C84.7768 186.223 84.7328 186.155 84.7088 186.083L83.3648 182.075L82.0208 186.083C81.9888 186.155 81.9408 186.223 81.8768 186.287C81.8128 186.351 81.7168 186.383 81.5888 186.383H80.7848ZM89.3456 186.383C89.2656 186.383 89.1976 186.355 89.1416 186.299C89.0856 186.243 89.0576 186.175 89.0576 186.095V180.431C89.0576 180.351 89.0856 180.283 89.1416 180.227C89.1976 180.171 89.2656 180.143 89.3456 180.143H90.3416C90.4296 180.143 90.4976 180.171 90.5456 180.227C90.6016 180.283 90.6296 180.351 90.6296 180.431V186.095C90.6296 186.175 90.6016 186.243 90.5456 186.299C90.4976 186.355 90.4296 186.383 90.3416 186.383H89.3456ZM89.2976 179.111C89.2096 179.111 89.1376 179.087 89.0816 179.039C89.0336 178.983 89.0096 178.911 89.0096 178.823V177.959C89.0096 177.879 89.0336 177.811 89.0816 177.755C89.1376 177.699 89.2096 177.671 89.2976 177.671H90.3896C90.4776 177.671 90.5496 177.699 90.6056 177.755C90.6616 177.811 90.6896 177.879 90.6896 177.959V178.823C90.6896 178.911 90.6616 178.983 90.6056 179.039C90.5496 179.087 90.4776 179.111 90.3896 179.111H89.2976ZM95.0417 186.383C94.5617 186.383 94.1577 186.299 93.8297 186.131C93.5017 185.963 93.2577 185.715 93.0977 185.387C92.9377 185.051 92.8577 184.635 92.8577 184.139V181.415H91.9097C91.8297 181.415 91.7617 181.387 91.7057 181.331C91.6497 181.275 91.6217 181.207 91.6217 181.127V180.431C91.6217 180.351 91.6497 180.283 91.7057 180.227C91.7617 180.171 91.8297 180.143 91.9097 180.143H92.8577V178.151C92.8577 178.071 92.8817 178.003 92.9297 177.947C92.9857 177.891 93.0577 177.863 93.1457 177.863H94.1177C94.1977 177.863 94.2657 177.891 94.3217 177.947C94.3777 178.003 94.4057 178.071 94.4057 178.151V180.143H95.9057C95.9857 180.143 96.0537 180.171 96.1097 180.227C96.1657 180.283 96.1937 180.351 96.1937 180.431V181.127C96.1937 181.207 96.1657 181.275 96.1097 181.331C96.0537 181.387 95.9857 181.415 95.9057 181.415H94.4057V184.019C94.4057 184.347 94.4617 184.603 94.5737 184.787C94.6937 184.971 94.8977 185.063 95.1857 185.063H96.0137C96.0937 185.063 96.1617 185.091 96.2177 185.147C96.2737 185.203 96.3017 185.271 96.3017 185.351V186.095C96.3017 186.175 96.2737 186.243 96.2177 186.299C96.1617 186.355 96.0937 186.383 96.0137 186.383H95.0417ZM97.6662 186.383C97.5862 186.383 97.5182 186.355 97.4622 186.299C97.4062 186.243 97.3782 186.175 97.3782 186.095V178.151C97.3782 178.071 97.4062 178.003 97.4622 177.947C97.5182 177.891 97.5862 177.863 97.6662 177.863H98.7342C98.8222 177.863 98.8902 177.891 98.9382 177.947C98.9942 178.003 99.0222 178.071 99.0222 178.151V180.887C99.2382 180.631 99.5022 180.423 99.8142 180.263C100.126 180.103 100.51 180.023 100.966 180.023C101.454 180.023 101.878 180.135 102.238 180.359C102.606 180.575 102.89 180.883 103.09 181.283C103.29 181.683 103.39 182.163 103.39 182.723V186.095C103.39 186.175 103.362 186.243 103.306 186.299C103.25 186.355 103.182 186.383 103.102 186.383H102.022C101.942 186.383 101.874 186.355 101.818 186.299C101.762 186.243 101.734 186.175 101.734 186.095V182.795C101.734 182.331 101.618 181.967 101.386 181.703C101.162 181.439 100.834 181.307 100.402 181.307C99.9862 181.307 99.6502 181.439 99.3942 181.703C99.1462 181.967 99.0222 182.331 99.0222 182.795V186.095C99.0222 186.175 98.9942 186.243 98.9382 186.299C98.8902 186.355 98.8222 186.383 98.7342 186.383H97.6662ZM107.229 186.503C106.813 186.503 106.445 186.435 106.125 186.299C105.813 186.155 105.553 185.955 105.345 185.699C105.137 185.443 104.977 185.143 104.865 184.799C104.753 184.447 104.689 184.063 104.673 183.647C104.665 183.503 104.661 183.375 104.661 183.263C104.661 183.143 104.665 183.011 104.673 182.867C104.689 182.467 104.749 182.095 104.853 181.751C104.965 181.407 105.125 181.107 105.333 180.851C105.549 180.587 105.813 180.383 106.125 180.239C106.445 180.095 106.813 180.023 107.229 180.023C107.661 180.023 108.025 180.099 108.321 180.251C108.625 180.395 108.877 180.583 109.077 180.815V178.151C109.077 178.071 109.101 178.003 109.149 177.947C109.205 177.891 109.277 177.863 109.365 177.863H110.385C110.465 177.863 110.533 177.891 110.589 177.947C110.645 178.003 110.673 178.071 110.673 178.151V186.095C110.673 186.175 110.645 186.243 110.589 186.299C110.533 186.355 110.465 186.383 110.385 186.383H109.437C109.349 186.383 109.277 186.355 109.221 186.299C109.173 186.243 109.149 186.175 109.149 186.095V185.651C108.949 185.899 108.693 186.103 108.381 186.263C108.077 186.423 107.693 186.503 107.229 186.503ZM107.673 185.219C108.009 185.219 108.277 185.143 108.477 184.991C108.677 184.839 108.825 184.647 108.921 184.415C109.017 184.175 109.069 183.931 109.077 183.683C109.085 183.539 109.089 183.387 109.089 183.227C109.089 183.059 109.085 182.903 109.077 182.759C109.069 182.519 109.013 182.291 108.909 182.075C108.805 181.851 108.653 181.667 108.453 181.523C108.253 181.379 107.993 181.307 107.673 181.307C107.337 181.307 107.069 181.383 106.869 181.535C106.677 181.679 106.537 181.871 106.449 182.111C106.361 182.351 106.309 182.615 106.293 182.903C106.285 183.143 106.285 183.383 106.293 183.623C106.309 183.911 106.361 184.175 106.449 184.415C106.537 184.655 106.677 184.851 106.869 185.003C107.069 185.147 107.337 185.219 107.673 185.219ZM112.56 186.383C112.48 186.383 112.412 186.355 112.356 186.299C112.3 186.243 112.272 186.175 112.272 186.095V180.443C112.272 180.355 112.3 180.283 112.356 180.227C112.412 180.171 112.48 180.143 112.56 180.143H113.532C113.612 180.143 113.68 180.171 113.736 180.227C113.8 180.283 113.832 180.355 113.832 180.443V180.935C114.016 180.679 114.252 180.483 114.54 180.347C114.836 180.211 115.176 180.143 115.56 180.143H116.052C116.14 180.143 116.208 180.171 116.256 180.227C116.312 180.283 116.34 180.351 116.34 180.431V181.295C116.34 181.375 116.312 181.443 116.256 181.499C116.208 181.555 116.14 181.583 116.052 181.583H115.116C114.732 181.583 114.432 181.691 114.216 181.907C114.008 182.123 113.904 182.419 113.904 182.795V186.095C113.904 186.175 113.876 186.243 113.82 186.299C113.764 186.355 113.692 186.383 113.604 186.383H112.56ZM118.995 186.503C118.579 186.503 118.203 186.423 117.867 186.263C117.531 186.095 117.263 185.875 117.063 185.603C116.871 185.323 116.775 185.011 116.775 184.667C116.775 184.107 116.999 183.663 117.447 183.335C117.903 182.999 118.503 182.775 119.247 182.663L120.891 182.423V182.171C120.891 181.835 120.807 181.575 120.639 181.391C120.471 181.207 120.183 181.115 119.775 181.115C119.487 181.115 119.251 181.175 119.067 181.295C118.891 181.407 118.759 181.559 118.671 181.751C118.607 181.855 118.515 181.907 118.395 181.907H117.447C117.359 181.907 117.291 181.883 117.243 181.835C117.203 181.787 117.183 181.723 117.183 181.643C117.191 181.515 117.243 181.359 117.339 181.175C117.435 180.991 117.587 180.815 117.795 180.647C118.003 180.471 118.271 180.323 118.599 180.203C118.927 180.083 119.323 180.023 119.787 180.023C120.291 180.023 120.715 180.087 121.059 180.215C121.411 180.335 121.691 180.499 121.899 180.707C122.107 180.915 122.259 181.159 122.355 181.439C122.451 181.719 122.499 182.015 122.499 182.327V186.095C122.499 186.175 122.471 186.243 122.415 186.299C122.359 186.355 122.291 186.383 122.211 186.383H121.239C121.151 186.383 121.079 186.355 121.023 186.299C120.975 186.243 120.951 186.175 120.951 186.095V185.627C120.847 185.779 120.707 185.923 120.531 186.059C120.355 186.187 120.139 186.295 119.883 186.383C119.635 186.463 119.339 186.503 118.995 186.503ZM119.403 185.363C119.683 185.363 119.935 185.303 120.159 185.183C120.391 185.063 120.571 184.879 120.699 184.631C120.835 184.375 120.903 184.055 120.903 183.671V183.419L119.703 183.611C119.231 183.683 118.879 183.799 118.647 183.959C118.415 184.119 118.299 184.315 118.299 184.547C118.299 184.723 118.351 184.875 118.455 185.003C118.567 185.123 118.707 185.215 118.875 185.279C119.043 185.335 119.219 185.363 119.403 185.363ZM125.684 186.383C125.572 186.383 125.488 186.355 125.432 186.299C125.376 186.243 125.328 186.171 125.288 186.083L123.572 180.515C123.564 180.475 123.56 180.439 123.56 180.407C123.56 180.335 123.584 180.275 123.632 180.227C123.688 180.171 123.748 180.143 123.812 180.143H124.7C124.796 180.143 124.872 180.171 124.928 180.227C124.984 180.275 125.016 180.323 125.024 180.371L126.2 184.343L127.448 180.407C127.464 180.351 127.5 180.295 127.556 180.239C127.612 180.175 127.696 180.143 127.808 180.143H128.408C128.52 180.143 128.604 180.175 128.66 180.239C128.716 180.295 128.752 180.351 128.768 180.407L130.016 184.343L131.192 180.371C131.2 180.323 131.228 180.275 131.276 180.227C131.332 180.171 131.408 180.143 131.504 180.143H132.392C132.464 180.143 132.524 180.171 132.572 180.227C132.628 180.275 132.656 180.335 132.656 180.407C132.656 180.439 132.648 180.475 132.632 180.515L130.916 186.083C130.892 186.171 130.848 186.243 130.784 186.299C130.728 186.355 130.644 186.383 130.532 186.383H129.752C129.64 186.383 129.552 186.355 129.488 186.299C129.424 186.243 129.38 186.171 129.355 186.083L128.108 182.291L126.86 186.083C126.828 186.171 126.78 186.243 126.715 186.299C126.66 186.355 126.572 186.383 126.452 186.383H125.684Z" fill="#141D3E"/>
<path d="M51 162.883H160.5V160.883H51V162.883ZM166.5 168.883V194.883H168.5V168.883H166.5ZM160.5 200.883H51V202.883H160.5V200.883ZM45 194.883V168.883H43V194.883H45ZM51 200.883C47.6863 200.883 45 198.197 45 194.883H43C43 199.301 46.5817 202.883 51 202.883V200.883ZM166.5 194.883C166.5 198.197 163.814 200.883 160.5 200.883V202.883C164.918 202.883 168.5 199.301 168.5 194.883H166.5ZM160.5 162.883C163.814 162.883 166.5 165.569 166.5 168.883H168.5C168.5 164.465 164.918 160.883 160.5 160.883V162.883ZM51 160.883C46.5817 160.883 43 164.465 43 168.883H45C45 165.569 47.6863 162.883 51 162.883V160.883Z" fill="#141D3E"/>
<path d="M175.5 168.883C175.5 165.017 178.634 161.883 182.5 161.883H292C295.866 161.883 299 165.017 299 168.883V194.883C299 198.749 295.866 201.883 292 201.883H182.5C178.634 201.883 175.5 198.749 175.5 194.883V168.883Z" fill="#141D3E"/>
<path d="M223.767 185.883C223.687 185.883 223.619 185.855 223.563 185.799C223.507 185.743 223.479 185.675 223.479 185.595V177.783C223.479 177.695 223.507 177.623 223.563 177.567C223.619 177.511 223.687 177.483 223.767 177.483H228.975C229.063 177.483 229.135 177.511 229.191 177.567C229.247 177.623 229.275 177.695 229.275 177.783V178.623C229.275 178.711 229.247 178.783 229.191 178.839C229.135 178.887 229.063 178.911 228.975 178.911H225.123V181.191H228.735C228.823 181.191 228.895 181.219 228.951 181.275C229.007 181.331 229.035 181.403 229.035 181.491V182.331C229.035 182.411 229.007 182.479 228.951 182.535C228.895 182.591 228.823 182.619 228.735 182.619H225.123V185.595C225.123 185.675 225.095 185.743 225.039 185.799C224.983 185.855 224.911 185.883 224.823 185.883H223.767ZM232.764 186.003C232.276 186.003 231.852 185.895 231.492 185.679C231.14 185.455 230.868 185.143 230.676 184.743C230.484 184.335 230.388 183.855 230.388 183.303V179.931C230.388 179.851 230.416 179.783 230.472 179.727C230.528 179.671 230.596 179.643 230.676 179.643H231.732C231.82 179.643 231.888 179.671 231.936 179.727C231.992 179.783 232.02 179.851 232.02 179.931V183.231C232.02 184.223 232.456 184.719 233.328 184.719C233.744 184.719 234.072 184.587 234.312 184.323C234.56 184.059 234.684 183.695 234.684 183.231V179.931C234.684 179.851 234.712 179.783 234.768 179.727C234.824 179.671 234.892 179.643 234.972 179.643H236.028C236.108 179.643 236.176 179.671 236.232 179.727C236.288 179.783 236.316 179.851 236.316 179.931V185.595C236.316 185.675 236.288 185.743 236.232 185.799C236.176 185.855 236.108 185.883 236.028 185.883H235.056C234.968 185.883 234.896 185.855 234.84 185.799C234.792 185.743 234.768 185.675 234.768 185.595V185.103C234.552 185.383 234.284 185.603 233.964 185.763C233.644 185.923 233.244 186.003 232.764 186.003ZM238.189 185.883C238.109 185.883 238.041 185.855 237.985 185.799C237.929 185.743 237.901 185.675 237.901 185.595V179.931C237.901 179.851 237.929 179.783 237.985 179.727C238.041 179.671 238.109 179.643 238.189 179.643H239.173C239.253 179.643 239.321 179.671 239.377 179.727C239.433 179.783 239.461 179.851 239.461 179.931V180.423C239.669 180.167 239.933 179.955 240.253 179.787C240.581 179.611 240.985 179.523 241.465 179.523C241.953 179.523 242.377 179.635 242.737 179.859C243.097 180.075 243.373 180.383 243.565 180.783C243.765 181.183 243.865 181.663 243.865 182.223V185.595C243.865 185.675 243.837 185.743 243.781 185.799C243.725 185.855 243.657 185.883 243.577 185.883H242.521C242.441 185.883 242.373 185.855 242.317 185.799C242.261 185.743 242.233 185.675 242.233 185.595V182.295C242.233 181.831 242.117 181.467 241.885 181.203C241.661 180.939 241.333 180.807 240.901 180.807C240.485 180.807 240.153 180.939 239.905 181.203C239.657 181.467 239.533 181.831 239.533 182.295V185.595C239.533 185.675 239.505 185.743 239.449 185.799C239.393 185.855 239.325 185.883 239.245 185.883H238.189ZM247.706 186.003C247.29 186.003 246.922 185.935 246.602 185.799C246.29 185.655 246.03 185.455 245.822 185.199C245.614 184.943 245.454 184.643 245.342 184.299C245.23 183.947 245.166 183.563 245.15 183.147C245.142 183.003 245.138 182.875 245.138 182.763C245.138 182.643 245.142 182.511 245.15 182.367C245.166 181.967 245.226 181.595 245.33 181.251C245.442 180.907 245.602 180.607 245.81 180.351C246.026 180.087 246.29 179.883 246.602 179.739C246.922 179.595 247.29 179.523 247.706 179.523C248.138 179.523 248.502 179.599 248.798 179.751C249.102 179.895 249.354 180.083 249.554 180.315V177.651C249.554 177.571 249.578 177.503 249.626 177.447C249.682 177.391 249.754 177.363 249.842 177.363H250.862C250.942 177.363 251.01 177.391 251.066 177.447C251.122 177.503 251.15 177.571 251.15 177.651V185.595C251.15 185.675 251.122 185.743 251.066 185.799C251.01 185.855 250.942 185.883 250.862 185.883H249.914C249.826 185.883 249.754 185.855 249.698 185.799C249.65 185.743 249.626 185.675 249.626 185.595V185.151C249.426 185.399 249.17 185.603 248.858 185.763C248.554 185.923 248.17 186.003 247.706 186.003ZM248.15 184.719C248.486 184.719 248.754 184.643 248.954 184.491C249.154 184.339 249.302 184.147 249.398 183.915C249.494 183.675 249.546 183.431 249.554 183.183C249.562 183.039 249.566 182.887 249.566 182.727C249.566 182.559 249.562 182.403 249.554 182.259C249.546 182.019 249.49 181.791 249.386 181.575C249.282 181.351 249.13 181.167 248.93 181.023C248.73 180.879 248.47 180.807 248.15 180.807C247.814 180.807 247.546 180.883 247.346 181.035C247.154 181.179 247.014 181.371 246.926 181.611C246.838 181.851 246.786 182.115 246.77 182.403C246.762 182.643 246.762 182.883 246.77 183.123C246.786 183.411 246.838 183.675 246.926 183.915C247.014 184.155 247.154 184.351 247.346 184.503C247.546 184.647 247.814 184.719 248.15 184.719Z" fill="white"/>
<g opacity="0.8">
<path d="M313.667 61.8828H324.333" stroke="#797A7A" stroke-width="1.5" stroke-linecap="round" stroke-linejoin="round"/>
<path d="M319 67.2162V56.5495" stroke="#797A7A" stroke-width="1.5" stroke-linecap="round" stroke-linejoin="round"/>
<path d="M315 75.2162H323C329.667 75.2162 332.333 72.5495 332.333 65.8828V57.8828C332.333 51.2162 329.667 48.5495 323 48.5495H315C308.333 48.5495 305.667 51.2162 305.667 57.8828V65.8828C305.667 72.5495 308.333 75.2162 315 75.2162Z" stroke="#797A7A" stroke-width="1.5" stroke-linecap="round" stroke-linejoin="round"/>
</g>
</g>
</g>
<defs>
<filter id="filter0_d_5_4537" x="-10" y="0" width="395" height="260.767" filterUnits="userSpaceOnUse" color-interpolation-filters="sRGB">
<feFlood flood-opacity="0" result="BackgroundImageFix"/>
<feColorMatrix in="SourceAlpha" type="matrix" values="0 0 0 0 0 0 0 0 0 0 0 0 0 0 0 0 0 0 127 0" result="hardAlpha"/>
<feMorphology radius="6" operator="dilate" in="SourceAlpha" result="effect1_dropShadow_5_4537"/>
<feOffset dy="4"/>
<feGaussianBlur stdDeviation="12"/>
<feComposite in2="hardAlpha" operator="out"/>
<feColorMatrix type="matrix" values="0 0 0 0 0.0797273 0 0 0 0 0.0535729 0 0 0 0 0.154167 0 0 0 0.2 0"/>
<feBlend mode="normal" in2="BackgroundImageFix" result="effect1_dropShadow_5_4537"/>
<feBlend mode="normal" in="SourceGraphic" in2="effect1_dropShadow_5_4537" result="shape"/>
</filter>
<clipPath id="clip0_5_4537">
<rect x="20" y="26" width="335" height="200.767" rx="28.0139" fill="white"/>
</clipPath>
</defs>
</svg>
